<?xml version="1.0" encoding="UTF-8" standalone="no"?>
<!DOCTYPE svg  PUBLIC '-//W3C//DTD SVG 1.1//EN'  'http://www.w3.org/Graphics/SVG/1.1/DTD/svg11.dtd'>
<svg xmlns="http://www.w3.org/2000/svg">
<defs>
<font id="Gabrielle-Regular" horiz-adv-x="840">
<font-face underline-position="-70" font-weight="400" descent="-200" panose-1="2 0 5 5 2 0 0 2 0 2" units-per-em="1000" unicode-range="U+0020-E001" bbox="-118 -243 1181 898" x-height="298" underline-thickness="60" font-family="Gabrielle" ascent="800" cap-height="701"/>
<missing-glyph horiz-adv-x="1000"/>
<glyph glyph-name=".notdef" horiz-adv-x="1000"/>
<glyph glyph-name=".null" horiz-adv-x="0" unicode=""/>
<glyph glyph-name="nonmarkingreturn" horiz-adv-x="1000" unicode=""/>
<glyph glyph-name="space" horiz-adv-x="310" unicode=" "/>
<glyph glyph-name="exclam" horiz-adv-x="193" unicode="!" d="M72 70q8 0 8 -20q0 -65 -76 -65q-3 6 -3 9q12 16 15 60q14 0 28 8t28 8zM279 681q-45 -109 -90 -237t-91 -276l-23 2q1 6 3 12t4 14l118 467q3 3 27 17q27 15 29 15q13 0 19 -2q-1 -3 1 -7t3 -5z"/>
<glyph glyph-name="quotedbl" horiz-adv-x="240" unicode='&quot;' d="M298 642q0 -42 -37 -82q-36 -39 -78 -39q-3 1 -3 8q20 14 33 37q23 41 23 75q31 16 53 16q9 0 9 -15zM168 642q0 -42 -37 -82q-36 -39 -78 -39q-3 1 -3 8q20 14 33 37q23 41 23 75q31 16 53 16q9 0 9 -15z"/>
<glyph glyph-name="numbersign" horiz-adv-x="472" unicode="#" d="M346 346l-120 1q-8 -19 -20 -47t-30 -69l117 -4q10 21 23 51t30 68zM498 384q-4 -6 -8 -16t-12 -23h-86q-25 -54 -50 -118h22t30 1q16 2 30 2h23q-7 -16 -28 -41h-35l-57 -1q-16 -32 -25 -61t-13 -55q-1 -8 -3 -22t-3 -30q-3 -13 -21 -19q-34 -10 -57 -23q-4 0 -4 5 q0 66 74 202l-116 1q-17 -35 -28 -64t-16 -52q-1 -8 -3 -20l-5 -30q-1 -13 -21 -19q-34 -10 -57 -23q-4 0 -4 5q0 44 83 202q-35 3 -120 15q-3 10 17 33q18 22 24 22h1q58 -18 100 -18q8 13 20 41t30 68q-58 2 -119 12q8 14 18 27t23 24q44 -14 100 -15q14 32 40 84t60 127 q8 -1 20 -11t12 -16q0 -3 -32 -69q-20 -41 -33 -69t-21 -46l116 -6q14 30 38 80t56 122q35 -20 35 -25q0 -4 -31 -65q-19 -38 -32 -66t-21 -48q22 -2 44 -2h45z"/>
<glyph glyph-name="dollar" horiz-adv-x="448" unicode="$" d="M256 491q-73 -11 -118 -53q-52 -46 -52 -116q0 -9 6 -18t15 -16q9 -6 19 -10t20 -4l63 3zM187 38q62 3 108 31q58 33 58 89q1 26 -19 42t-47 15l-61 -1zM299 548q12 2 21 2h14q96 0 96 -54q0 -18 -9 -34q-12 -20 -28 -20q-5 0 -8 11q-4 9 -5 16q-23 24 -93 24l-47 -215 l18 1h19q122 0 122 -85q0 -48 -40 -100q-35 -45 -81 -75q-24 -15 -100 -23q-3 -12 -8 -36t-13 -59l-30 4l19 88q-21 -3 -41 -3q-45 0 -78 12q-44 18 -44 57q0 17 16 39q15 22 31 22q11 0 13 -36q0 -23 48 -36q30 -8 65 -10q12 58 22 102t17 73l-67 -1h-3q-38 0 -60 25 q-23 26 -23 66q0 61 60 132q54 63 115 93q17 8 51 16l21 94l29 -4z"/>
<glyph glyph-name="percent" horiz-adv-x="575" unicode="%" d="M555 150q0 -63 -50 -113q-50 -49 -117 -49q-44 0 -75 34q-29 34 -31 80q-1 73 92 123q51 27 106 27q12 0 33 -6q26 -8 26 -15q0 -11 -14 -16l-33 -11q-20 21 -55 21q-42 0 -67 -43q-23 -37 -23 -80q0 -35 21 -59t55 -24q36 0 58 31q20 29 20 66q0 16 -10 37t-10 24 q39 21 53 21q21 0 21 -48zM439 603l-287 -622l-38 -1l286 622zM300 506q2 -66 -50 -116q-50 -49 -117 -49q-43 0 -75 35q-29 34 -31 80q-1 73 92 123q51 27 106 27q12 0 33 -6q26 -8 26 -15q0 -11 -14 -16l-33 -11q-20 21 -55 21q-42 0 -67 -43q-23 -37 -23 -80 q0 -35 21 -59t55 -24q36 0 58 31q20 29 20 66q0 16 -10 37t-10 24q39 21 53 21q21 0 21 -46z"/>
<glyph glyph-name="ampersand" horiz-adv-x="733" unicode="&amp;" d="M594 253q0 38 -48 38q-28 0 -52 -12l-48 -24q-2 -1 -9 -1q5 10 21 26t40 36q26 20 50 24q6 2 20 2h33h124q4 0 14 4t14 4q9 0 9 -7q0 -20 -33 -38q-32 -17 -52 -17h-2h-6t-11 1h-21q0 -109 -94 -209q-115 -121 -299 -121q-107 0 -161 22q-83 33 -83 122q0 87 123 164 q87 55 181 79q-76 23 -100 36q-54 31 -54 83q0 87 113 146q95 47 191 48q42 0 78 -14q46 -19 46 -57q0 -24 -20 -41t-45 -17q-21 0 -34 15q21 22 21 40q0 23 -39 37q-27 10 -58 10q-60 0 -121 -40q-69 -44 -69 -100q0 -45 64 -67q32 -11 133 -28q10 -1 10 -12q0 -9 -47 -41 q-83 -13 -168 -65q-122 -75 -124 -186q-2 -51 60 -84q49 -27 106 -27q148 0 255 96q92 86 92 175z"/>
<glyph glyph-name="quotesingle" horiz-adv-x="110" unicode="&apos;" d="M168 642q0 -42 -37 -82q-36 -39 -78 -39q-3 1 -3 8q20 14 33 37q23 41 23 75q31 16 53 16q9 0 9 -15z"/>
<glyph glyph-name="parenleft" horiz-adv-x="226" unicode="(" d="M331 659l16 -13q-61 -82 -107 -170t-78 -182q-11 -34 -22 -75t-21 -90q-28 -133 -28 -232q1 -27 3 -62t7 -78h-19q-5 21 -11 51t-14 71q-11 50 -15 95t-4 87q0 129 31 210q60 161 262 388z"/>
<glyph glyph-name="parenright" horiz-adv-x="226" unicode=")" d="M-97 -243l-16 13q121 164 184 351q19 60 42 165q28 134 28 233q-1 27 -3 62t-7 78h19q8 -37 14 -67l11 -55q20 -106 20 -183q0 -129 -31 -210q-60 -159 -261 -387z"/>
<glyph glyph-name="asterisk" horiz-adv-x="402" unicode="*" d="M372 374l-62 18q-25 6 -50 10t-50 6q20 -38 42 -69t43 -56q-56 -11 -93 -39q0 85 -12 156q-72 -59 -106 -114q-7 16 -18 36t-28 47q59 9 143 52q-50 33 -141 63q17 23 45 77q13 -17 39 -47t68 -73q15 63 15 148q33 -14 97 -23q-45 -46 -86 -135q48 8 84 16t58 16v-14 q0 -37 12 -75z"/>
<glyph glyph-name="plus" horiz-adv-x="500" unicode="+" d="M507 323q-65 -80 -136 -80h-2l-80 1q0 -7 -19 -102q-2 -22 -2 -36v-22q5 -28 21 -53q-52 -40 -56 -40q-16 0 -23 45q-3 27 -3 49v10q1 10 5 47t9 103l-141 3l-55 -16l55 62q7 8 22 10l125 -2l11 113q2 11 2 19v12q0 29 -25 36v1q-1 0 -1 1q6 9 37 35q32 26 39 26t12 -20 q2 -10 2 -20t-2 -19l-18 -185l128 -1q12 2 41 9l55 18z"/>
<glyph glyph-name="comma" horiz-adv-x="190" unicode="," d="M126 37q0 -42 -36 -81t-79 -39q-3 1 -3 8q20 14 33 37q23 40 23 74q31 16 53 16q9 0 9 -15z"/>
<glyph glyph-name="hyphen" horiz-adv-x="300" unicode="-" d="M239 149l-202 -4q-3 10 -3 18q0 3 2 9l4 12t6 12q3 4 6 4l174 5h8q21 0 21 -10t-16 -46z"/>
<glyph glyph-name="period" horiz-adv-x="190" unicode="." d="M119 70q8 0 8 -20q0 -65 -76 -65q-3 6 -3 9q12 16 15 60q15 0 29 8t27 8z"/>
<glyph glyph-name="slash" horiz-adv-x="251" unicode="/" d="M289 603l-287 -622l-37 -1l285 622z"/>
<glyph glyph-name="zero" horiz-adv-x="552" unicode="0" d="M539 601q-4 -37 -12 -49q-9 -16 -40 -28q39 -70 41 -140q1 -134 -90 -264q-99 -140 -229 -140q-80 0 -132 73q-48 66 -48 148q0 244 238 364q76 38 106 38q11 0 11 -5q0 -14 -15 -23q-11 -8 -72 -33q-81 -35 -136 -155q-25 -55 -37 -106q-12 -47 -12 -93v-7 q2 -66 34 -113q37 -54 99 -54q91 0 159 117q62 109 62 224q0 75 -25 118q-17 29 -56 58q0 12 18 41q20 29 30 29q27 -8 50 -8q24 0 56 8z"/>
<glyph glyph-name="one" horiz-adv-x="454" unicode="1" d="M457 587q0 -9 -53 -171q-10 -28 -22 -64t-27 -78l-103 -250q-65 -35 -72 -35q-13 0 -13 11q0 6 84 200q92 213 119 332q-175 -134 -333 -134q6 22 30 43q11 8 21 17t22 17q26 1 79 9q80 15 205 99q31 22 45 22q18 0 18 -18z"/>
<glyph glyph-name="two" horiz-adv-x="506" unicode="2" d="M463 468q0 -123 -182 -276q-74 -62 -183 -129q43 1 82 3t76 2q122 0 152 -14l41 39l12 -12l-80 -98q-101 24 -200 24q-21 0 -51 -2t-72 -6q-72 -8 -72 -9h1q-9 0 -9 7q0 3 3 9t7 11q4 6 8 11t7 7q20 23 125 77q71 38 158 141q103 124 103 215q0 47 -36 77q-35 27 -82 27 q-63 0 -116 -46q-57 -48 -57 -109q0 -7 4 -15l8 -16q6 -8 13 -14t13 -7l14 -2l14 -2q19 -4 19 -15q0 -18 -34 -31q-29 -12 -50 -12q-27 0 -45 23t-18 52q0 91 95 157q85 59 182 61q31 0 59 -8t48 -26q20 -16 32 -40t11 -54zM-13 -10h1h-1z"/>
<glyph glyph-name="three" horiz-adv-x="506" unicode="3" d="M479 530q0 -41 -57 -84q-11 -8 -37 -24t-69 -41q-57 -33 -57 -49q0 -10 31 -10q10 0 28 1t27 1q119 0 119 -77q0 -110 -129 -192q-115 -73 -232 -73q-48 0 -82 18q-41 23 -41 67q0 15 5 30t15 26t22 17t27 6q23 -1 25 -3q13 -3 13 -15q1 -4 -3 -10t-8 -13t-6 -14 q-4 -7 -4 -11q0 -25 38 -45q34 -17 62 -17q60 0 137 60q83 66 83 137q0 29 -20 37q-9 4 -46 4q-10 0 -26 -1t-36 -3q-41 -3 -62 -3q-38 0 -38 27q0 31 62 73q10 7 24 16t33 21t33 21t24 16q62 42 62 74q0 35 -58 35q-68 0 -108 -8q-23 -4 -55 -16t-75 -31q-4 -1 -6 2t0 7 q12 20 20 34t11 19q14 21 41 28t53 12q39 8 69 12t53 4q44 0 83 -12q55 -18 55 -53z"/>
<glyph glyph-name="four" horiz-adv-x="530" unicode="4" d="M468 160q-12 -6 -51 -9l-35 -132q-49 -34 -83 -34q-1 0 -1 1q0 9 21 72q26 81 26 83h-14q-14 0 -43 -1t-56 -1h-50q-199 0 -199 29q0 3 30 38q118 130 185 270q29 59 30 79q76 51 92 51q8 0 8 -10q0 -37 -83 -161q-45 -66 -91 -121t-95 -103q147 -21 236 -21q42 0 65 6 l50 123q4 1 13 5t24 8q24 10 35 10q2 -2 2 -4q0 -30 -53 -136q7 -3 15 -3q8 -1 20 3t18 4t6 -5q0 -31 -22 -41z"/>
<glyph glyph-name="five" horiz-adv-x="476" unicode="5" d="M441 498q-25 31 -63 31q-106 0 -181 -15l-28 -86q-27 -77 -68 -152q32 20 55 32t39 18q50 20 103 21h3q49 0 90 -37q40 -37 40 -91q0 -105 -114 -174q-100 -59 -211 -59q-55 0 -97 18q-53 24 -53 73q0 27 26 45q22 16 51 16q41 0 41 -18q0 -4 -4 -10l-8 -12l-8 -12 t-3 -11q0 -32 26 -49q22 -16 56 -16q83 0 148 60q66 60 66 142q0 42 -30 66t-73 24q-55 0 -100 -24q-13 -7 -28 -18t-32 -25q-29 -24 -39 -24q-18 0 -16 8q7 15 17 37t25 54q22 48 39 97t28 101q24 21 57 66q63 7 113 10t85 3q83 0 83 -29q0 -28 -35 -60z"/>
<glyph glyph-name="six" horiz-adv-x="562" unicode="6" d="M210 -21q-82 0 -136 45q-58 49 -58 129q0 100 76 191q28 36 70 72t98 74l164 113q32 0 32 -11q0 -12 -82 -67q-96 -65 -141 -107q-65 -62 -100 -144q-29 -69 -29 -120q0 -30 11 -56t30 -44t45 -28t56 -11q82 0 147 63q63 63 63 144q0 46 -32 74q-32 26 -77 27 q-42 0 -86 -28q-15 -7 -31 -21t-36 -32q-31 -28 -38 -28q-6 3 -8 12q42 70 105 110q68 44 144 44q57 0 91 -36t33 -93q0 -104 -105 -191q-101 -81 -206 -81z"/>
<glyph glyph-name="seven" horiz-adv-x="488" unicode="7" d="M530 573q0 -3 -85 -100q-47 -55 -83 -104t-59 -93q11 0 27 2t38 6t38 6t27 2q12 0 12 -4q0 -9 -32 -47q-22 -4 -57 -9t-86 -10q-66 -96 -92 -202q-3 -14 -28 -20q-20 -6 -36 -12t-29 -14q-10 0 -10 9q0 27 114 236q-5 1 -18 1t-35 3q-42 3 -69 13q-1 2 -1 5q0 11 18 30 q23 26 30 26q6 0 50 -11q22 -6 38 -8t28 -3q8 26 95 127q85 100 114 122q-59 -13 -115 -19t-110 -7h-18q-38 0 -88 6q-84 9 -84 25q0 4 32 30t39 26q9 1 31 -3t59 -11q71 -13 117 -13q38 0 110 15t106 15q12 0 12 -15z"/>
<glyph glyph-name="eight" horiz-adv-x="472" unicode="8" d="M230 292q-74 -45 -108 -78q-58 -55 -58 -114q0 -42 31 -64q28 -20 70 -20q76 0 137 67q54 59 54 110q0 61 -126 99zM314 349q104 -69 104 -122q0 -96 -104 -174q-98 -72 -197 -72q-56 0 -93 24q-42 30 -42 82q0 112 221 225q-113 47 -113 107q0 81 79 133q70 45 155 45 q13 0 43 -6q36 -8 36 -18q0 -13 -24 -29q-18 -13 -30 -16q3 2 -33 12q-48 13 -68 13q-41 0 -72 -24q-35 -26 -35 -65q0 -31 52 -68q52 -36 85 -36q42 0 80 59q32 51 41 98q5 5 14 11t22 15q22 16 32 16q9 0 9 -23q0 -40 -64 -105q-25 -25 -49 -45t-49 -37zM349 528 q-3 -1 -6 -1q5 0 6 1z"/>
<glyph glyph-name="nine" horiz-adv-x="572" unicode="9" d="M352 591q83 0 136 -46q58 -48 58 -129q0 -100 -76 -191q-28 -35 -70 -71t-98 -75l-164 -112q-32 0 -32 11t82 66q96 65 141 107q65 62 100 144q29 69 29 120q0 29 -11 55t-30 44t-45 30q-26 10 -56 10q-83 0 -147 -64q-63 -61 -63 -141q0 -49 32 -77q32 -26 77 -26 q43 0 87 28q12 8 28 21t38 32q31 28 38 28q6 -3 8 -12q-43 -70 -105 -110q-68 -44 -144 -44q-57 0 -91 36t-33 93q0 104 105 191q100 82 206 82z"/>
<glyph glyph-name="colon" horiz-adv-x="190" unicode=":" d="M43 70q8 0 8 -20q0 -65 -75 -65q-3 6 -3 9q12 16 15 60q14 0 28 8t27 8zM113 294q8 0 8 -20q0 -66 -76 -66q-3 6 -3 9q12 16 15 61q15 0 29 8t27 8z"/>
<glyph glyph-name="semicolon" horiz-adv-x="190" unicode=";" d="M113 294q8 0 8 -20q0 -66 -76 -66q-3 6 -3 9q12 16 15 61q15 0 29 8t27 8zM55 37q0 -42 -36 -81q-35 -39 -78 -39q-3 1 -3 8q20 14 33 37q23 40 23 74q31 16 52 16q9 0 9 -15z"/>
<glyph glyph-name="less" horiz-adv-x="506" unicode="&lt;" d="M493 460q-81 -53 -165 -100t-171 -90l305 -120l-75 -50q-24 8 -59 22t-81 37q-101 46 -144 63q-13 3 -35 9t-55 16q1 4 12 6q113 53 289 149q42 23 80 45t70 44z"/>
<glyph glyph-name="equal" horiz-adv-x="540" unicode="=" d="M520 275l-80 -65q-12 -11 -78 -15l-290 5l-54 -16l55 62q7 8 21 10l311 -4q14 0 61 9l54 18v-4zM533 427l-79 -65q-18 -15 -72 -15h-7l-289 5l-55 -16l55 62q9 10 22 10l310 -4q20 1 61 9l55 18z"/>
<glyph glyph-name="greater" horiz-adv-x="536" unicode="&gt;" d="M528 342q-52 -32 -126 -72t-174 -89q-66 -33 -104 -51t-50 -23l-30 34q57 27 143 69t203 102l-314 131l75 51q57 -26 127 -56t157 -66q7 -3 93 -30z"/>
<glyph glyph-name="question" horiz-adv-x="395" unicode="?" d="M125 70q8 0 8 -20q0 -65 -76 -65q-3 6 -3 9q12 16 15 60q15 0 29 8t27 8zM277 363q-13 -11 -35 -30t-50 -47q-12 -12 -25 -64q-10 -43 -34 -43q-18 0 -18 51q0 44 37 90q24 30 79 76q29 25 49 43t32 31q40 44 40 94q0 20 -8 38t-24 30q-14 12 -34 20q-20 7 -41 7 q-59 0 -97 -23q-47 -27 -47 -82q0 -6 3 -14t8 -16t11 -14t12 -8l12 -2l12 -2q16 -4 16 -15q0 -17 -29 -31q-26 -12 -44 -12q-24 0 -41 26q-14 23 -14 49q0 84 78 131q64 37 156 37q57 0 94 -31q41 -35 41 -88q0 -61 -44 -114q-16 -14 -40 -36t-55 -51z"/>
<glyph glyph-name="at" horiz-adv-x="590" unicode="@" d="M398 161q41 0 83 45q39 41 47 84l4 28t1 27q0 92 -58 138q-55 44 -147 44q-38 0 -89 -23q-62 -30 -109 -81q-51 -57 -61 -119q-3 -20 -5 -37t-2 -30q0 -95 70 -150q65 -50 162 -50q83 0 153 70q7 -11 5 -27q-30 -22 -56 -38t-51 -24q-51 -19 -121 -19q-96 0 -160 63 q-64 64 -64 159q0 91 49 165q25 39 90 87q27 18 53 36t52 37q52 28 130 28q92 0 148 -69q52 -64 52 -158q0 -13 -1 -27t-3 -26q-10 -61 -71 -116q-60 -54 -121 -54q-38 0 -42 3q-10 6 -10 37q0 24 17 101q-3 0 -28 -31q-72 -89 -140 -89q-29 0 -47 19q-19 19 -19 50 q0 93 97 166q91 69 188 69q84 0 84 -20q-10 -21 -22 -57t-28 -87q-32 -101 -30 -124zM399 399q0 19 -45 19q-67 0 -122 -52q-55 -51 -55 -117q0 -45 39 -45q47 0 109 77q21 25 39 55t35 63z"/>
<glyph glyph-name="A" d="M423 248l-155 4h-10q-71 0 -126 -27q-73 -36 -73 -107q0 -16 8 -30t21 -24q14 -10 30 -15t34 -5q122 0 271 204zM831 323q1 -15 -21 -36q-20 -20 -38 -28q-13 -5 -70 -18l-54 -169q-3 -11 -3 -18q0 -12 11 -12q26 0 96 58l15 -12q-17 -12 -41 -32t-59 -46 q-29 -21 -58 -21q-43 0 -43 41q0 5 2 15l56 200h-149q-78 -91 -132 -136q-141 -114 -259 -116q-42 1 -69 23q-27 23 -27 65q0 97 132 164q112 56 221 56h120q83 104 140 248q58 33 65 33q6 0 6 -8q0 -7 -5 -22l-148 -256h125q0 6 89 281q3 9 3 18q0 33 -25 33q-35 0 -96 -19 q-56 -17 -56 -19h1q-10 0 -10 9q0 5 65 76q57 16 99 16q98 0 98 -73q0 -8 -2 -16q-91 -288 -91 -306h5q28 0 50 10q2 0 14 8t36 23q2 -1 4 -5t3 -9z" unicode="A"/>
<glyph glyph-name="B" horiz-adv-x="658" unicode="B" d="M288 571q-13 -23 -33 -74t-47 -131q-20 -57 -40 -136t-42 -182q-57 -51 -71 -51q-11 0 -11 8q0 9 19 89q11 48 23 94t26 94q63 218 83 243q13 5 41 31q28 24 40 24q4 0 12 -9zM687 560q0 -131 -203 -232q137 -23 137 -123t-108 -161q-92 -50 -199 -51h-4q-123 0 -123 70 q-1 29 19 45t48 16q26 0 26 -15q-9 -15 -9 -27q0 -50 115 -50q71 0 120 37q55 40 55 108q-2 83 -129 83q-15 0 -37 -4t-51 -10q-51 -12 -51 -14h1q-8 0 -12 12q14 14 26 27t24 27q6 8 10 12t5 4q88 16 166 69q102 67 102 158q0 97 -190 97q-86 0 -173 -23q-28 -8 -56 -18 t-58 -23q-52 -23 -63 -23q-1 5 -1 9q0 8 3 10q13 18 30 36t38 39q148 56 278 56q264 0 264 -141z"/>
<glyph glyph-name="C" horiz-adv-x="625" unicode="C" d="M666 613q0 -10 -4 -21t-10 -20t-16 -15q-8 -6 -17 -6q-26 0 -26 6q0 8 1 11v8q0 30 -64 49q-48 16 -87 16q-136 0 -229 -130q-85 -118 -85 -259q0 -227 227 -227q58 0 109 20q20 7 112 57q12 -5 12 -12q0 -36 -120 -75q-102 -32 -155 -34h-3q-107 0 -183 62 q-81 67 -83 175q-1 189 140 327q140 139 330 139q45 0 90 -15q61 -19 61 -56z"/>
<glyph glyph-name="D" horiz-adv-x="709" unicode="D" d="M139 17l-63 -39q-12 0 -12 21q17 65 33 125t33 120q11 36 33 102t56 161q70 45 77 45q9 0 9 -9q-21 -52 -44 -114t-49 -137q-14 -42 -32 -110t-41 -165zM726 433q0 -192 -146 -332q-134 -127 -294 -127q-102 0 -102 61q0 9 4 18t9 17t13 12q8 5 16 5q3 0 5 -3 q20 -71 126 -71q111 0 202 109q98 119 98 283q0 214 -259 214q-114 0 -273 -67l-57 -24q-9 0 -9 10q0 2 80 91q-17 0 -17 2q0 3 34 10q24 5 58 11t76 12q85 12 110 12q138 0 223 -52q103 -61 103 -191z"/>
<glyph glyph-name="E" horiz-adv-x="580" unicode="E" d="M594 588q0 -24 -20 -41t-45 -17q-21 0 -34 15q21 22 21 40q0 23 -39 37q-27 10 -58 10q-60 0 -121 -40q-69 -44 -69 -100q0 -45 64 -67q32 -11 133 -28q10 -1 10 -12q0 -9 -47 -41q-83 -13 -168 -65q-124 -76 -124 -188q0 -51 59 -85q52 -29 107 -29q63 0 126 31 q77 39 77 96q0 22 -30 33q3 40 53 42q22 -1 37 -17t15 -39q0 -71 -109 -122q-92 -42 -172 -42q-107 0 -161 22q-83 33 -83 122q0 87 123 164q87 55 181 79q-76 23 -100 36q-54 31 -54 83q0 87 113 146q95 47 191 48q42 0 78 -14q46 -19 46 -57z"/>
<glyph glyph-name="F" horiz-adv-x="795" unicode="F" d="M792 268q-11 -68 -30 -101q-29 -47 -87 -47q-8 0 -8 9q0 2 11 13l13 13q14 22 14 42q0 14 -6 20q-57 -23 -94 -35t-56 -14q-65 -111 -182 -170q-95 -49 -191 -49q-73 0 -119 25q-58 31 -58 98q0 53 29 126q34 82 79 93q6 1 29 12q24 11 27 11q7 0 7 -9q-18 -18 -56 -82 q-53 -91 -53 -150q0 -50 44 -79q37 -24 92 -24q100 0 181 66q45 37 106 121q-22 0 -46 1t-49 3q-71 6 -71 15t22 22l38 25q51 -7 83 -11t46 -3q29 48 51 145q21 87 24 154q59 38 69 38q5 0 5 -18q0 -47 -24 -138q-28 -104 -66 -181q33 0 114 21q42 10 70 20t42 18zM812 626 q0 -12 -16 -32q-15 -20 -25 -20q-44 15 -88 15q-147 0 -273 -40q-14 -5 -49 -19t-92 -37q0 8 17 37q17 31 17 34q16 16 126 48q127 36 227 36q87 0 156 -22z"/>
<glyph glyph-name="G" horiz-adv-x="690" unicode="G" d="M708 604q0 -26 -16 -44t-40 -18q-15 0 -28 7q-2 4 0 12q6 10 6 21q0 40 -56 60q-42 14 -89 14q-136 0 -257 -142q-117 -137 -117 -276q0 -74 44 -120t119 -46q50 0 121 40q57 31 87 64q18 20 53 78q35 56 46 66q49 41 64 41q9 0 9 -7q0 -137 -72 -261q-70 -118 -188 -194 q-103 -67 -196 -67q-47 0 -79 13q-47 20 -47 58q0 55 65 55q18 0 18 -12q1 -9 -5 -17t-6 -13q0 -27 36 -42q30 -11 60 -11q134 0 231 133q87 117 96 258q-64 -97 -153 -157q-101 -68 -205 -68q-68 0 -116 52t-48 121q0 194 160 341q157 143 352 143q49 0 94 -17 q57 -23 57 -65z"/>
<glyph glyph-name="H" horiz-adv-x="929" unicode="H" d="M394 226q-16 -2 -58 -4t-109 -7q-62 -5 -112 -32q-64 -34 -64 -89q0 -42 30 -66t73 -23q75 0 147 77q55 58 93 144zM936 654q-22 -40 -45 -88t-46 -106q-49 -122 -68 -203l82 8q36 8 66 41l7 -9q-46 -52 -76 -65q-26 -11 -92 -16q-35 -105 -35 -158q1 -12 7 -27t17 -15 q28 0 78 49q12 0 12 -12l-42 -32t-41 -32q-22 -14 -42 -14q-48 0 -48 59q0 67 28 186l-248 4q-11 -18 -19 -32t-13 -23q-14 -23 -27 -41t-26 -30q-23 -25 -51 -46t-61 -38q-74 -38 -132 -38q-129 0 -129 76q0 109 167 171q126 46 259 47q19 34 48 155q25 112 27 157l-24 -16 t-24 -15q-40 -22 -80 -22q-48 0 -48 59q0 47 26 58l69 21q-23 -69 -23 -72q2 -23 30 -23q31 0 57 21q22 19 45 38t48 39q3 -3 3 -17q0 -60 -36 -192q-16 -61 -32 -107t-30 -81q4 0 64 -3t176 -8q25 98 69 200q7 14 25 54t48 107q4 3 14 7t25 12q22 12 41 12z"/>
<glyph glyph-name="I" horiz-adv-x="648" unicode="I" d="M634 461q-2 -49 -13 -97t-30 -98q-42 -110 -107 -166q-119 -103 -296 -104h-4q-62 0 -109 34q-53 39 -53 102q0 48 34 113q28 53 54 82q109 48 114 48q8 0 8 -7q0 -16 -29 -37q-19 -13 -29 -21t-13 -13q-79 -119 -79 -190q0 -50 40 -74q32 -20 79 -20h5q177 2 280 168 q36 57 60 155q24 94 24 166v87q0 30 -10 33q-12 -10 -26 -20t-33 -19q-48 -27 -78 -28h-3q-24 0 -24 35q0 16 8 45q9 33 21 37q73 29 75 29q9 0 9 -6q0 -5 -12 -27q-12 -23 -12 -34q0 -20 17 -20q34 0 133 87q9 -6 9 -15q0 -77 -2 -133t-8 -92z"/>
<glyph glyph-name="J" horiz-adv-x="632" unicode="J" d="M652 689q0 -318 -111 -535q-143 -279 -431 -279q-106 0 -106 119q0 145 106 270q28 14 62 28t74 30q3 -2 3 -5t-1 -4q-54 -37 -106 -117q-66 -101 -66 -187q0 -107 89 -107h2q214 1 325 276q83 201 83 445v11q0 51 -34 51q-17 0 -89 -39q-73 -38 -117 -38q-37 0 -76 11 q-50 13 -60 42q3 3 75 48l20 -14t19 -15q22 -15 55 -15h8q55 2 139 34q84 34 98 34q39 0 39 -44z"/>
<glyph glyph-name="K" horiz-adv-x="897" unicode="K" d="M452 222q-62 -92 -145 -153q-100 -71 -195 -71q-41 0 -69 21t-28 55v9q3 23 7 41t9 32q11 31 33 63t52 67q93 34 107 34q10 0 14 -4q-80 -77 -112 -118q-47 -61 -47 -104v-5q2 -31 26 -48t56 -17q128 2 241 206q90 162 103 380q-88 -56 -133 -56q-13 0 -21 13t-9 26 q0 15 13 48q13 36 22 36l82 22q-36 -44 -36 -75q0 -20 19 -20q27 0 86 45q58 45 59 45q9 0 9 -15q0 -67 -43 -214q-22 -83 -48 -143t-52 -100zM936 679q0 -42 -37 -109q-55 -101 -160 -162l-136 -78q-30 -17 -30 -35q0 -33 40 -77l128 -145q25 -30 63 -30q29 0 73 45 q13 -4 13 -10q-23 -26 -60 -54q-47 -33 -70 -33q-40 0 -89 55l-133 150q-34 37 -34 68q0 22 26 39l171 113q65 42 99 100q31 51 50 133q11 11 83 39q3 -3 3 -9z"/>
<glyph glyph-name="L" horiz-adv-x="552" unicode="L" d="M554 622q0 -6 -19 -31q-20 -26 -25 -26h-7q-3 -1 -6 -1q1 34 -21 56t-55 22q-114 0 -175 -103q-31 -52 -109 -293q-4 -11 -12 -32t-22 -51q-40 -90 -71 -132q105 47 231 47q113 0 200 -34l42 49l11 -9q0 -8 -35 -52q-4 -4 -14 -16t-27 -32l-118 24q-23 4 -56 6t-77 1 q-48 0 -130 -14l-81 -14q-6 0 -6 9l60 144q6 14 18 50t28 97q16 55 28 91t21 55q49 102 138 171q100 77 213 79h2q74 0 74 -61z"/>
<glyph glyph-name="M" horiz-adv-x="1088" unicode="M" d="M548 559q-5 -117 -83 -258q-71 -129 -165 -217q-111 -102 -211 -102q-51 0 -71 20t-21 70q0 46 32 102q18 30 78 108l100 33q0 -13 -6 -17q-19 -13 -40 -36t-46 -55q-60 -80 -60 -131q1 -14 7 -26t16 -22t24 -14q13 -6 26 -6q94 0 185 112q69 84 115 197q50 120 51 205z M533 681h4q61 0 100 -66q36 -59 36 -125q0 -46 -4 -105t-12 -132q-7 -69 -11 -106t-3 -45q29 46 49 78t34 53q30 46 56 83t49 66q70 88 133 156t121 116l67 17q4 -7 4 -11q0 -2 -1 -4q-37 -52 -73 -130t-75 -180q-72 -198 -72 -280q0 -45 36 -45q18 0 89 58l12 -10 q-38 -29 -60 -45t-29 -22q-38 -23 -63 -23q-20 0 -36 14t-15 34q0 101 72 310q61 176 110 264q-129 -123 -212 -231q-19 -26 -63 -92t-111 -170q-20 -32 -39 -90l-63 -35q14 102 22 157t9 65q8 63 12 119t4 105q0 72 -16 120q-24 75 -79 75q-30 0 -76 -24q-40 -19 -40 -18 q0 20 74 92q15 2 29 4t31 3z"/>
<glyph glyph-name="N" horiz-adv-x="915" unicode="N" d="M503 548q2 -10 2 -18q0 -58 -27 -148q-32 -108 -81 -178q-80 -115 -129 -158q-77 -67 -171 -67q-45 0 -73 22t-27 65q0 52 42 126q19 32 38 56t38 38l88 27q9 0 9 -9q-156 -137 -156 -228q0 -27 19 -50t46 -23q72 0 140 63q27 26 51 58t43 70q67 134 91 316q7 4 21 13 t36 25zM984 673l-21 -140q-16 -99 -41 -164q-89 -238 -174 -370q-27 -18 -41 -18q-3 25 -16 95t-36 188q-13 72 -33 138t-44 127q-17 43 -51 69q-38 27 -81 27q-47 0 -102 -31q-6 1 -6 8l73 77q55 3 81 3q83 0 134 -109q36 -77 57 -156q13 -47 31 -137t45 -223 q53 105 57 115q16 34 28 63t19 55q28 96 36 129q7 31 10 63t4 67q-1 7 -1 17t-1 24t-1 24t-1 17q10 4 30 30q16 21 32 21q8 0 13 -9z"/>
<glyph glyph-name="O" horiz-adv-x="746" unicode="O" d="M734 388q0 -61 -51 -155q-60 -111 -149 -179q-101 -76 -216 -76q-119 0 -196 74q-75 73 -77 192q-1 175 148 308q143 126 322 128h4q82 0 140 -41q-11 -11 -77 -30q-74 40 -121 40q-137 0 -231 -93q-108 -107 -108 -296q0 -89 49 -162q61 -91 168 -91h2q132 1 230 123 q91 116 91 248q0 46 -20 78q-21 34 -54 34q-5 0 -11 -1q0 23 18 41t41 19q47 0 76 -60q22 -45 22 -101z"/>
<glyph glyph-name="P" horiz-adv-x="785" unicode="P" d="M100 -20q-43 0 -70 26t-27 68q0 62 71 169q14 5 30 11t34 14q28 12 31 12q8 0 8 -8q0 -4 -28 -33q-80 -86 -80 -152q-1 -16 5 -31t16 -27t22 -19q14 -7 30 -7q112 2 195 146q71 126 77 247l6 114q24 27 61 50q1 -10 3 -31t2 -55q0 -80 -32 -176q-43 -128 -130 -217 q-99 -99 -224 -101zM816 453q0 -125 -82 -228q-87 -110 -209 -110q-73 0 -73 53q0 24 20 42t46 19q13 0 13 -13q0 -6 -6 -14t-6 -14q0 -31 60 -31q85 0 134 82q43 70 43 160q0 102 -52 161t-153 59q-97 0 -202 -57q-72 -39 -127 -91q-3 7 -2 14q6 15 18 37t31 52 q169 105 293 105q103 0 176 -61q78 -65 78 -165z"/>
<glyph glyph-name="Q" horiz-adv-x="744" unicode="Q" d="M733 427q0 -84 -49 -178q-57 -108 -145 -175q-99 -75 -210 -76q-16 -11 -38 -29t-51 -44q90 23 159 23q70 0 72 -50q0 -6 -2 -14t-6 -15q-5 -7 -9 -12t-10 -5q-32 25 -51 33q-17 5 -52 5q-105 0 -194 -26q-2 17 12 34l78 52q49 31 51 49q-106 0 -175 71q-68 71 -68 177 q0 186 146 320q143 131 330 131q82 0 141 -44l-77 -37q-42 28 -69 35q-29 9 -79 9q-132 0 -231 -130q-89 -118 -89 -239q0 -95 53 -175q60 -90 150 -90q37 35 66 88q22 40 34 43q8 1 38 17q25 13 33 13q6 -6 4 -12q-6 -16 -46 -62q-26 -27 -81 -90h10q58 0 129 61 q65 56 102 121q56 97 56 196q0 34 -17 65q-19 34 -53 34q-7 0 -12 -1q-7 -1 -7 8q0 11 6 21t16 18q10 9 22 13t22 4q47 0 72 -46q19 -35 19 -91z"/>
<glyph glyph-name="R" horiz-adv-x="679" unicode="R" d="M172 214q-14 -48 -27 -92t-24 -90q-9 -5 -19 -12t-23 -17q-16 -11 -22 -11t-6 14q0 24 58 220q17 57 33 100t29 72l73 150q37 27 63 27q4 0 4 -6q0 -17 -55 -140q-61 -138 -84 -215zM742 559q0 -53 -55 -107q-47 -45 -105 -70l-218 -94q-51 -23 -51 -46q0 -37 100 -107 q31 -22 51 -36t29 -19q55 -33 89 -33q15 0 27 12l47 47l11 -14q-14 -14 -35 -36t-50 -51q-17 -15 -36 -15q-51 0 -163 82q-75 55 -100 80q-48 46 -48 81q0 33 54 54l203 80q62 25 115 66q69 54 69 106q0 54 -89 78q-55 16 -130 16q-177 0 -323 -44l-48 -16q-7 0 -7 8 q0 4 17 24q11 11 20 23t17 23q17 11 146 28q124 15 183 15q96 0 170 -23q110 -34 110 -112z"/>
<glyph glyph-name="S" horiz-adv-x="583" unicode="S" d="M613 627q1 -11 -3 -22t-10 -20t-16 -15q-8 -6 -18 -6q-6 0 -11 14q-3 14 -5 16q-35 35 -127 35h-5q-110 -2 -191 -56q-96 -63 -96 -165q0 -28 30 -47t55 -19h3l159 7h22q168 0 168 -103q0 -59 -57 -125q-46 -53 -108 -91q-14 -8 -44 -16t-75 -12q-38 -4 -68 -6t-55 -2 q-57 0 -102 14q-62 21 -62 68q0 21 20 47q19 25 41 25q12 0 13 -16v-25q2 -34 81 -50q53 -12 99 -12h7q90 2 162 34q94 43 94 121q0 18 -8 33t-21 25t-31 15t-36 5l-224 -4h-3q-49 0 -80 30q-32 30 -32 79q0 77 86 166q77 78 156 112q29 11 80 20q25 4 45 6t37 2 q130 0 130 -62z"/>
<glyph glyph-name="T" horiz-adv-x="629" unicode="T" d="M433 118q-42 -46 -130 -88q-89 -42 -148 -42q-158 0 -159 108q0 73 85 194q5 2 19 8t37 14q45 18 50 18q13 0 13 -7q0 -31 -39 -65q-51 -46 -59 -61q-35 -64 -35 -100q0 -41 33 -63q27 -20 63 -20h7q166 3 263 175q78 140 87 323q7 3 35 23t33 20q9 0 9 -16 q0 -239 -164 -421zM707 651q0 -8 -29 -49q-58 5 -94 8t-53 3q-29 0 -67 -4t-88 -12q-45 -8 -124 -37q-75 -28 -71 -28q-10 0 -10 9q0 7 22 30q17 21 29 33t16 19q42 22 150 35q91 12 160 12q159 0 159 -19z"/>
<glyph glyph-name="U" horiz-adv-x="693" unicode="U" d="M760 675q9 0 9 -9q0 -10 -6 -20q-29 -51 -81 -178q-32 -78 -60 -162q-71 -210 -71 -246q0 -24 17 -24q15 0 83 42q12 0 12 -9q-98 -83 -155 -90q-27 0 -27 45q0 81 122 414l-104 -138q-112 -145 -232 -234q-53 -39 -113 -64q-53 -21 -72 -21q-34 0 -53 33q-17 29 -17 65 q0 154 105 324q35 57 69 100t70 73q-29 5 -49 10t-33 9q-53 16 -78 45q9 9 32 22q25 15 33 15q-2 0 64 -26q64 -25 86 -28q101 56 137 56q12 0 12 -9q0 -15 -31 -46t-46 -34q-27 -5 -49 -9t-41 -8q-49 -43 -105 -152q-52 -100 -69 -173q-29 -127 -29 -153q0 -63 49 -63 q30 0 122 65q79 55 115 91q44 45 86 95t83 107q97 136 142 254q66 31 73 31z"/>
<glyph glyph-name="V" horiz-adv-x="869" unicode="V" d="M894 560v-8q0 -89 -45 -203q-45 -118 -106 -185q-60 -66 -154 -121q-107 -62 -181 -62q-69 0 -114 21q-59 28 -61 90q0 45 17 90l135 331q29 72 29 91q0 20 -24 32q-20 9 -42 9q-77 0 -153 -93q-73 -88 -73 -167q0 -15 11 -29t25 -13q19 0 19 -9q0 -21 -26 -38 q-22 -13 -46 -13q-13 0 -24 7t-19 18q-8 10 -14 24q-4 14 -4 28q0 120 132 225q121 95 225 97q36 0 59 -17q26 -20 26 -55q0 -27 -20 -78l-139 -343q-23 -58 -23 -90q0 -37 44 -60q33 -17 73 -17h4q169 1 291 151q113 139 113 311q0 46 -17 78q-20 39 -60 39q-27 0 -27 3 q-1 30 23 50t55 19q89 0 91 -113z"/>
<glyph glyph-name="W" horiz-adv-x="1083" unicode="W" d="M1087 491q1 -72 -44 -177q-37 -88 -91 -160q-144 -192 -298 -193q-61 0 -97 34t-36 95q0 57 23 118q10 27 45 93q28 52 32 78q-23 -9 -84 -68l-37 -37t-53 -52q-34 -33 -55 -58q-23 -28 -54 -68t-69 -92q-9 -4 -38 -21q-23 -15 -39 -15q-6 0 -6 12q37 62 69 120t60 115 q110 225 115 340v7q0 79 -70 79q-87 0 -168 -99q-76 -94 -76 -185q0 -16 10 -36q12 -24 26 -24h2q5 0 16 1q16 1 16 -6q0 -23 -31 -39q-26 -16 -50 -16q-26 0 -44 30q-16 25 -16 53q0 123 119 237q118 114 243 114q43 1 67 -23q25 -24 24 -68q0 -124 -111 -347 q-29 -60 -29 -70q0 -3 2 -3q51 55 165 165q13 13 36 31t56 45q25 19 39 30t17 15q39 17 81 17q14 0 9 -5q-177 -234 -177 -355q0 -23 8 -42t24 -33q14 -14 34 -23q20 -8 43 -8q43 0 102 30q102 66 167 186q63 115 63 235v7q0 43 -19 84q-23 53 -59 53q-4 0 -22 -5 q-16 -4 -16 5q0 28 26 48q22 18 53 18q53 0 78 -61q17 -42 19 -106z"/>
<glyph glyph-name="X" horiz-adv-x="862" unicode="X" d="M357 204q-56 0 -122 18q-69 18 -114 47q-25 -28 -46 -96q-21 -65 -21 -105q0 -66 64 -66q67 0 153 89q34 35 55 63t31 50zM856 606q0 50 -51 50q-58 0 -124 -105q-21 -34 -40 -73t-36 -84q-34 -87 -34 -118q83 29 178 128q107 113 107 202zM925 606q0 -93 -130 -211 q-120 -111 -229 -139l-9 -64q2 -170 130 -170q103 0 165 56q10 -4 10 -11q-22 -28 -100 -57t-116 -29q-79 0 -119 48q-39 46 -39 126q0 13 2 31t5 41q-23 -9 -79 -18q-53 -84 -129 -146q-101 -81 -202 -81q-39 0 -66 24t-27 64q0 49 25 124q11 32 21 54t17 32q20 6 31 10 t13 5q29 13 55 33q88 -84 221 -84l39 107q29 98 29 182q0 33 -14 63q-17 35 -47 35h-3q-32 -2 -63 -36l-9 9q34 76 105 76q52 0 77 -40q23 -35 23 -88q0 -69 -19 -141q-11 -42 -36 -108q-19 -48 -19 -59q33 0 62 9q11 69 40 137t75 134q109 157 232 157q78 0 78 -75z"/>
<glyph glyph-name="Y" horiz-adv-x="744" unicode="Y" d="M179 -183q-63 0 -91 9q-54 16 -54 62q0 21 23 38q22 16 45 16q17 0 17 -12q-1 -3 -5 -13t-4 -16q0 -29 41 -49q36 -17 66 -17q85 0 182 79q45 36 77 74t54 80q39 76 66 136t43 104q22 63 33 123q10 55 10 108v10q-38 -70 -58 -106t-23 -40q-23 -42 -47 -76t-47 -61 q-214 -256 -391 -256q-45 0 -72 24t-27 69q0 140 106 300q85 128 162 179q-149 32 -150 50l63 42q100 -44 153 -44q55 46 108 46q24 0 24 -10q0 -18 -73 -64q-29 -14 -80 -18q-111 -90 -181 -236q-61 -125 -61 -212q0 -48 16 -68q18 -24 63 -24q68 0 172 80q84 65 141 136 q163 202 216 379q36 19 75 36q-4 -41 -8 -75t-8 -60q-22 -149 -57 -253q-14 -43 -40 -91t-61 -102q-53 -78 -86 -111q-82 -82 -149 -119q-86 -47 -183 -47z"/>
<glyph glyph-name="Z" horiz-adv-x="669" unicode="Z" d="M700 653q0 -51 -282 -319q33 0 99 9q59 8 59 9h-1q7 0 7 -6q0 -13 -32 -43q-8 -7 -90 -16q-65 -8 -99 -9l-316 -237q46 0 153 21q106 21 165 21q98 0 250 -35q40 52 43 52q11 0 11 -10q-5 -10 -27 -36t-60 -70q-51 16 -155 28q-43 6 -77 8t-62 2q-36 0 -76 -3t-85 -8 q-101 -12 -156 -33q-6 0 -6 9q0 2 35 54q32 21 76 56t104 84q109 90 109 94q-11 1 -27 2t-38 3q-55 4 -76 14q-1 1 -1 2q0 7 21 27q25 25 38 31q36 -19 147 -25q39 37 78 77t77 85q95 110 95 137q0 18 -18 18q-215 -54 -279 -54q-161 0 -219 31q0 7 75 55q130 -34 217 -34 q52 0 144 19t131 19q48 0 48 -29z"/>
<glyph glyph-name="bracketleft" horiz-adv-x="268" unicode="[" d="M-1 -205l70 -6v-20l-146 6l260 887l147 9v-20l-79 -3z"/>
<glyph glyph-name="backslash" horiz-adv-x="251" unicode="\" d="M259 -20l-38 1l-197 622l39 -1z"/>
<glyph glyph-name="bracketright" horiz-adv-x="268" unicode="]" d="M290 666l-262 -891l-146 -6v20l77 3l255 855l-71 6v18z"/>
<glyph glyph-name="asciicircum" horiz-adv-x="416" unicode="^" d="M403 347l-43 -68q-26 39 -54 99t-58 142q-23 -42 -156 -243l-23 33q24 36 192 336q50 -131 69 -172q31 -70 73 -127z"/>
<glyph glyph-name="underscore" horiz-adv-x="451" unicode="_" d="M451 -130h-451v60h451v-60z"/>
<glyph glyph-name="grave" horiz-adv-x="333" unicode="`" d="M233 365h-40l-103 69q-19 13 -19 33q0 33 34 33q24 0 40 -22z"/>
<glyph glyph-name="a" horiz-adv-x="392" unicode="a" d="M307 247q0 20 -45 20q-67 0 -123 -53t-56 -119q0 -45 40 -45q83 0 184 197zM388 278q-80 -184 -80 -226q0 -17 15 -17q5 0 21 10t24 10q10 0 10 -11q0 -7 -39 -31q-44 -26 -54 -26q-42 0 -42 52q0 35 8 72q-4 0 -29 -31q-77 -89 -141 -89q-29 0 -48 19t-19 52 q0 93 99 166q91 70 190 70q83 0 85 -20z"/>
<glyph glyph-name="b" horiz-adv-x="382" unicode="b" d="M240 648q-2 -48 -18 -117t-43 -162q-3 -11 -19 -57t-43 -131l72 70q59 47 107 47q26 0 45 -19t19 -45q0 -85 -89 -165q-89 -78 -175 -78q-87 0 -87 46q0 29 38 134q29 83 47 133t24 70q40 130 51 235q-4 0 -25 -9q-22 -8 -26 -8q-8 0 -8 16q28 8 76 33q40 21 47 21 q9 0 7 -14zM246 241q-46 0 -109 -71q-62 -70 -62 -116q0 -40 51 -40q62 0 114 58q54 58 54 120q0 44 -48 49z"/>
<glyph glyph-name="c" horiz-adv-x="312" unicode="c" d="M305 272q2 -8 -27 -23q-27 -15 -36 -15q-3 0 -22 13q-20 14 -29 14q-55 0 -84 -35t-29 -92q0 -45 30 -73t76 -28q23 0 39 10q5 2 17 11t31 23q10 6 12 -6q2 -27 -64 -55q-57 -25 -89 -25q-24 0 -44 8t-36 22q-16 13 -26 33t-9 45q0 78 64 138q65 61 147 61q18 0 44 -6 q35 -8 35 -20z"/>
<glyph glyph-name="d" horiz-adv-x="421" unicode="d" d="M312 251q0 20 -54 20q-65 0 -119 -57q-54 -56 -54 -122q0 -48 40 -48q68 0 157 150q30 49 30 57zM477 636q0 -13 -20 -110q-21 -101 -36 -145l-118 -348q0 -7 11 -7q3 0 41 20q37 21 39 21q10 0 10 -16q-113 -62 -138 -62q-30 0 -30 29q0 8 10 44q4 20 8 32t5 20 q-37 -38 -59 -60l-31 -31q-41 -32 -80 -32q-29 1 -49 17t-20 44q0 84 88 165t173 81q17 0 46 -6q11 32 24 74t29 94q30 100 30 152l-27 -9q-21 -8 -24 -8q-8 0 -8 16q15 4 33 12t41 19q42 20 46 20q6 0 6 -26z"/>
<glyph glyph-name="e" horiz-adv-x="314" unicode="e" d="M187 273q-36 0 -67 -51q-29 -47 -29 -84q20 0 73 30q19 10 36 35t17 42q0 28 -30 28zM289 250q0 -50 -81 -93q-30 -15 -60 -27t-64 -20q0 -16 7 -30t18 -24t26 -18q15 -6 30 -6q30 0 56 15q6 2 28 17q13 8 18 8q10 0 10 -8q0 -7 -16 -20q-68 -53 -141 -53q-42 1 -71 27 t-29 68q0 87 73 153q65 59 130 59q66 0 66 -48z"/>
<glyph glyph-name="f" horiz-adv-x="309" unicode="f" d="M186 146q-19 33 -40 52q-8 -14 -20 -52t-26 -101t-22 -103t-7 -58q0 -27 12 -27q24 0 66 61q57 83 57 163q0 27 -20 65zM361 653q0 -14 -5 -42q-8 -33 -17 -33q-3 0 -13 7t-18 7q-26 0 -71 -116q-15 -42 -31 -90t-30 -103q126 0 170 15q7 -4 7 -10q0 -47 -186 -47 q37 -37 49 -55q30 -45 30 -97q0 -58 -25 -105q-18 -35 -63 -90q-76 -91 -128 -91q-25 0 -25 48q0 39 35 190q17 73 30 121t22 72q-4 2 -14 6t-26 9q-35 14 -35 18q0 13 50 34q5 -3 16 -7t27 -9q56 174 132 283q64 94 107 94q12 0 12 -9z"/>
<glyph glyph-name="g" horiz-adv-x="390" unicode="g" d="M225 -24q-30 0 -82 -40q-56 -44 -56 -77q0 -23 28 -23q45 0 80 75zM306 249q0 9 -45 9q-68 -2 -122 -53t-54 -117q-1 -22 13 -34t33 -12q29 0 52 22q3 2 92 103q14 15 31 82zM297 14q8 2 18 4t24 3q2 -8 2 -10q0 -4 -2 -8q-22 -3 -55 -12l-43 -69q-47 -66 -99 -99 q-29 -18 -69 -18q-54 0 -54 42q0 81 217 154q35 97 35 128q-44 -73 -110 -111q-48 -27 -84 -27q-25 0 -41 18t-16 44q0 102 107 177q98 68 203 68q13 0 45 -9q-21 -128 -52 -209q-23 -62 -26 -66z"/>
<glyph glyph-name="h" horiz-adv-x="384" unicode="h" d="M350 229q0 -43 -31 -120q-27 -70 -30 -70v1q0 -6 6 -6q7 0 19 4t17 5q9 0 9 -12q-4 -1 -22 -7t-50 -18q-45 -15 -61 -15l-7 12q14 14 28 41t30 68q32 82 32 120q0 30 -18 30q-36 0 -119 -107q-31 -38 -55 -73t-43 -67q-15 -5 -56 -24q-7 3 -11 9q14 24 34 76t49 133 q31 90 53 157t32 113q20 94 20 141q-9 -3 -20 -7t-25 -9q-3 0 -3 13q102 51 110 51q5 0 10 -9q-10 -83 -46 -217t-103 -320q15 18 38 44t54 61q63 71 120 71q39 0 39 -69z"/>
<glyph glyph-name="i" horiz-adv-x="186" unicode="i" d="M88 54q0 -21 18 -21q7 0 48 33q10 0 10 -11l-62 -48q-22 -16 -43 -16q-14 -1 -24 13t-10 28q0 51 64 213l-40 -10q-8 0 -8 16q20 4 72 26q51 21 55 21q8 0 8 -9q-16 -24 -50 -114q-38 -99 -38 -121zM208 454q0 -40 -31 -61q-26 -18 -68 -18q-3 6 -3 9q23 13 31 27 q7 11 8 42q3 1 10 3t15 5t16 5t13 3q9 0 9 -15z"/>
<glyph glyph-name="j" horiz-adv-x="176" unicode="j" d="M196 458q0 -40 -31 -61q-26 -18 -68 -18q-3 6 -3 9q23 13 31 27q7 11 8 42q3 1 10 3t15 5t16 5t13 3q9 0 9 -15zM155 289q-14 -61 -23 -97t-11 -46q-21 -83 -43 -140q-50 -127 -134 -192q-6 0 -6 6l12 24t23 44q38 78 63 172l50 194l-52 -16q-3 0 -8 11q1 7 44 19 q49 15 75 30q9 -3 10 -9z"/>
<glyph glyph-name="k" horiz-adv-x="424" unicode="k" d="M398 229q0 -62 -73 -93q-50 -21 -103 -21q4 -14 38 -54q38 -44 59 -44q12 0 59 24q8 -5 8 -7q-11 -7 -23 -14t-23 -15q-30 -14 -51 -14q-52 0 -89 45q-17 26 -33 52t-33 51q50 20 59 20h1l17 -27q37 0 75 24q43 27 43 61q0 20 -16 32t-36 12q-57 -1 -104 -51 q-7 -8 -21 -23t-35 -38q-14 -16 -34 -66q-18 -49 -26 -57t-32 -20t-32 -12q-9 0 -9 8q24 62 46 116t40 104q89 245 109 399q-2 -1 -14 -4t-35 -10q-6 -2 -6 9q3 5 35 17q23 8 43 17t36 18q3 0 8 -12q-10 -66 -28 -140t-43 -160q-54 -175 -53 -177q106 117 194 119 q32 0 57 -19t25 -50z"/>
<glyph glyph-name="l" horiz-adv-x="197" unicode="l" d="M186 617q-2 -1 -10 -4t-22 -8q-23 -10 -28 -10q-8 0 -8 16q14 5 34 13t44 18q45 20 49 20q3 0 3 -27q0 -67 -96 -374q-8 -23 -20 -58t-30 -82q-30 -80 -30 -86q0 -10 10 -10q9 0 39 18q7 3 16 9t22 14q6 -3 6 -15q-19 -13 -67 -36q-49 -24 -65 -24h-2q-24 1 -24 26 q0 9 11 40l66 179q10 24 24 72t34 124q44 164 44 185z"/>
<glyph glyph-name="m" horiz-adv-x="540" unicode="m" d="M130 297q7 0 9 -5q-9 -44 -30 -138q99 144 166 144q42 0 42 -63q0 -17 -8 -44q-10 -39 -12 -43q13 16 33 40t46 56q48 54 97 54q19 0 31 -16t11 -35q0 -38 -25 -107q-11 -30 -23 -56t-23 -46q7 2 20 4t33 7q4 -12 4 -16q-32 -4 -130 -42q-5 0 -9 7q0 2 27 49q5 7 13 27 t21 51q31 75 31 105q0 31 -21 31q-37 0 -107 -106q-26 -41 -46 -75t-35 -65l-72 -24q-5 1 -3 9q87 157 87 232q0 30 -18 30q-36 0 -102 -102q-23 -36 -42 -70t-34 -66q-23 -12 -63 -33l-12 9q16 23 50 124q36 103 36 128l-36 -12t-14 -4q-5 8 -5 12q7 2 21 9t35 20 q35 20 57 20z"/>
<glyph glyph-name="n" horiz-adv-x="366" unicode="n" d="M343 256q0 -49 -29 -130q-6 -16 -15 -38t-20 -51q7 3 21 5t32 6q3 0 6 -17q-46 -7 -78 -17t-55 -23q-2 1 -5 3t-8 3q40 72 66 143q25 66 25 90q0 31 -21 31q-25 0 -93 -86q-60 -76 -103 -153q-10 -4 -27 -12t-41 -19q0 15 16 59l34 90q24 65 30 112l-18 -6t-29 -11 q-7 8 -7 15q84 26 111 50q12 0 12 -6q-1 -16 -7 -40t-16 -53q-18 -59 -18 -81q37 52 66 90q67 87 134 88h2q35 0 35 -42z"/>
<glyph glyph-name="o" horiz-adv-x="354" unicode="o" d="M334 180q0 -73 -58 -131q-58 -56 -135 -58h-5q-48 0 -81 39t-35 93q-1 87 107 144q58 31 123 31q12 0 37 -5q29 -8 29 -16q0 -9 -15 -15l-36 -14q-22 25 -66 25q-51 0 -82 -52q-28 -44 -28 -98q0 -43 26 -73t68 -30q44 0 71 39q24 34 24 81q0 27 -24 68q41 25 59 25 q21 0 21 -53z"/>
<glyph glyph-name="p" horiz-adv-x="395" unicode="p" d="M308 192q0 50 -48 50q-40 0 -98 -67q-87 -101 -87 -153q5 0 13 -2t17 -2q9 -2 19 -3t15 -1q61 0 115 58t54 120zM371 237q0 -76 -87 -161q-86 -85 -163 -85l-27 3t-27 2q-29 -95 -35 -153q-14 -7 -35 -28q-16 -14 -25 -14q0 60 46 231q14 48 34 102t48 118q-5 0 -29 -8 q-21 -7 -36 -7q-2 14 7 14q6 1 23 7t45 18q51 22 59 22q7 0 7 -5q0 -1 -27 -58q-27 -58 -26 -78q109 136 178 136q27 0 49 -15t21 -41z"/>
<glyph glyph-name="q" horiz-adv-x="406" unicode="q" d="M256 275q-62 -2 -114 -52q-59 -59 -59 -133q0 -47 49 -47q26 0 64 30q16 13 30 30t28 40q61 106 61 120q-41 12 -59 12zM392 287q-2 -11 -14 -34q-15 -29 -18 -36q-110 -300 -110 -352q0 -15 9 -15q6 0 32 18q13 10 19 14l6 4q14 0 14 -14q-8 -5 -28 -18t-52 -35 q-23 -15 -41 -15q-9 0 -17 8t-8 19q0 60 85 300q-102 -140 -182 -140q-27 -1 -47 17t-20 46q0 91 98 169q93 75 186 75q74 0 88 -11z"/>
<glyph glyph-name="r" horiz-adv-x="272" unicode="r" d="M261 238q0 -14 -18 -39q-17 -24 -30 -24q-2 0 -9 24q-6 24 -18 24q-9 0 -37 -40q-5 -5 -19 -27t-36 -60q-4 -8 -8 -18t-7 -22q-3 -10 -5 -20t-4 -13t-59 -32q-4 0 -4 8q0 11 33 133q5 21 14 50t21 67q-24 -10 -54 -13l1 15q20 0 124 49q7 0 7 -10q-3 -11 -11 -32t-23 -53 q-10 -23 -17 -45t-12 -42l93 135q5 7 11 17t17 23q3 5 10 5q9 0 24 -25q16 -25 16 -35z"/>
<glyph glyph-name="s" horiz-adv-x="298" unicode="s" d="M275 154q0 -67 -49 -115q-48 -48 -115 -48q-37 0 -65 15q-35 20 -35 53v7q0 57 33 92q14 6 30 14l32 16q6 -2 6 -7q0 -10 -15 -32q-29 -43 -29 -87q0 -53 56 -53h2q38 0 65 34q24 31 24 71q0 42 -43 132q-12 -6 -26 -14t-33 -17q-4 0 -8 13q13 6 31 16t44 24q9 22 33 51 q28 36 45 36q15 0 15 -15q-5 -33 -39 -61q41 -99 41 -125z"/>
<glyph glyph-name="t" horiz-adv-x="218" unicode="t" d="M224 279q0 -5 -16 -18q-16 -12 -22 -15q-11 -4 -29 -4q-9 0 -19 1q-54 -152 -54 -196q0 -21 20 -21q13 0 59 37q9 0 9 -15q-62 -57 -122 -57q-30 0 -30 44q0 45 61 210l-48 3l26 42h41l51 139q63 27 66 27q6 0 6 -6l-70 -166q7 -1 13 -1h11q28 0 44 8z"/>
<glyph glyph-name="u" horiz-adv-x="393" unicode="u" d="M297 49q0 -21 22 -21q5 0 22 11l19 11q12 0 12 -10q-8 -7 -18 -15t-26 -16l-28 -14t-23 -8q-19 -1 -29 17t-11 38q0 29 11 62q17 44 18 53q-16 -22 -36 -47t-46 -54q-57 -65 -108 -65q-47 0 -49 53q-1 73 70 207l-49 -13q-9 -2 -11 15q20 5 43 11t48 17l49 19q8 0 8 -6 q0 -5 -21 -39q-26 -45 -36 -71q-41 -112 -41 -119q0 -36 22 -36q24 0 65 44q92 101 136 192q67 33 73 33q2 0 2 -3t-25 -65q-63 -161 -63 -181z"/>
<glyph glyph-name="v" horiz-adv-x="376" unicode="v" d="M352 223q0 -59 -62 -136q-80 -96 -196 -96q-30 0 -52 15t-22 44q0 43 32 121q5 14 14 34t21 48l-44 -7q-7 0 -7 18q94 15 139 39q6 0 6 -9q1 -4 -9 -19q-8 -13 -16 -25t-14 -22q-8 -14 -17 -36t-20 -49q-22 -62 -22 -89q-1 -18 15 -30t34 -12q61 0 112 64q48 60 48 121 q0 19 -10 37t-25 18q-2 0 -10 -2q-10 -3 -10 9q0 14 20 28q17 11 34 11h2q59 0 59 -75z"/>
<glyph glyph-name="w" horiz-adv-x="570" unicode="w" d="M546 253q0 -79 -86 -171q-85 -91 -164 -91q-74 0 -75 70q0 20 11 72q-60 -66 -78 -84q-61 -58 -95 -58q-15 1 -27 13t-12 28q0 44 23 116q3 8 13 34t27 73l-50 -14q-6 0 -6 17q146 44 146 46q2 -2 5 -12q-24 -26 -60 -109t-36 -115q0 -26 21 -26q33 0 105 101 q26 36 46 69t37 63q13 4 31 12t40 19l7 -12q-89 -158 -89 -218q0 -24 16 -38t39 -14q61 0 109 74q42 64 42 119q0 15 -10 30t-23 12q-15 -3 -19 0q-2 2 -2 9q0 9 26 20q21 10 34 10q22 0 38 -12t16 -33z"/>
<glyph glyph-name="x" horiz-adv-x="446" unicode="x" d="M428 282q0 -13 -38 -36q-6 1 -20 8t-22 7q-29 0 -61 -35q-30 -33 -32 -64q6 -2 12 -2h12q28 0 52 7q3 -2 3 -15q0 -27 -87 -27q-9 -20 -9 -34q1 -29 21 -49t49 -20q26 0 75 38q13 0 13 -11q0 -9 -43 -34q-49 -28 -84 -28q-68 0 -87 67q-50 -62 -114 -63h-6q-60 0 -60 38 q0 46 47 46q7 0 15 -1q4 -3 4 -8q0 -4 -3 -12t-3 -13q0 -24 33 -24q30 0 57 38q26 35 26 66q-20 1 -42 5t-47 8q0 7 10 14l34 24q36 -12 65 -12q6 16 6 36q0 69 -51 69q-14 0 -57 -28q-3 0 -6 12q7 10 20 19t28 16q14 6 30 10t30 4q25 0 40 -17q5 -5 12 -17t17 -31 q73 61 117 61q33 0 44 -12z"/>
<glyph glyph-name="y" horiz-adv-x="372" unicode="y" d="M349 286q-5 -20 -15 -66q-37 -213 -124 -324q-70 -91 -149 -91q-22 0 -36 10q-18 12 -18 32q-1 17 15 31t32 14q10 0 18 -9q-2 -10 -2 -15q0 -30 33 -30q58 0 110 139q38 100 49 188q-20 -29 -44 -57t-53 -55q-68 -62 -112 -62q-39 0 -39 56q0 22 32 106t32 91 q-14 -3 -33 -9q-9 0 -9 15q36 10 129 48q6 0 6 -8q0 -7 -56 -114q-38 -72 -38 -118q0 -26 21 -26q29 0 101 78q40 43 57 74q19 31 32 86q8 4 20 12t28 16q13 0 13 -12z"/>
<glyph glyph-name="z" horiz-adv-x="353" unicode="z" d="M327 282q-120 -107 -120 -115q10 0 33 3l19 3q0 -24 -19 -34q-8 -5 -92 -15q-45 -45 -69 -76q58 6 105 6q26 0 48 -2t41 -5q31 42 34 42q12 0 12 -11q0 -3 -76 -87q-29 0 -87 6q-59 6 -89 6q-16 0 -41 -6q-26 -6 -32 -6q-11 0 -11 13l138 122q-13 0 -27 2t-29 5l17 17 t22 20q9 2 29 -3q21 -3 28 -3q8 0 11 3q6 6 16 15t24 21q31 28 31 34q-13 -2 -29 -3t-35 -1q-111 0 -125 23q0 10 63 42q45 -17 143 -17q21 0 61 13q6 0 6 -12z"/>
<glyph glyph-name="braceleft" horiz-adv-x="279" unicode="{" d="M386 682l-4 -16q-48 -12 -72 -29q-27 -20 -41 -65l-59 -193q-27 -87 -104 -110q52 -13 52 -64q0 -18 -4 -33l-35 -142q-5 -22 -5 -35q0 -69 64 -76l-4 -15q-7 -1 -14 -1q-43 0 -74 23q-36 26 -36 77q0 15 5 38l31 132q6 25 6 44q0 40 -37 56q61 22 85 97l67 210 q21 68 88 87q23 3 45 7t46 8z"/>
<glyph glyph-name="bar" horiz-adv-x="295" unicode="|" d="M175 0h-60v634h60v-634z"/>
<glyph glyph-name="braceright" horiz-adv-x="279" unicode="}" d="M237 312q-61 -22 -85 -97l-67 -210q-23 -73 -87 -86q-13 -3 -91 -15l4 16q48 12 72 29q27 21 40 64l59 193q18 59 53 86q12 9 51 24q-52 13 -52 64q0 18 4 33l35 142q5 22 5 36q0 69 -64 76l4 15q124 0 124 -98q0 -17 -5 -40l-31 -132q-6 -26 -6 -44q0 -40 37 -56z"/>
<glyph glyph-name="asciitilde" horiz-adv-x="489" unicode="~" d="M462 307q-52 -91 -117 -91q-34 0 -100 31t-96 31q-44 0 -89 -73l-30 34q57 100 119 100q34 0 106 -32q69 -31 89 -31q48 0 88 67z"/>
<glyph glyph-name="exclamdown" horiz-adv-x="193" unicode="¡" d="M208 609q-8 0 -8 20q0 66 76 66q3 -6 3 -9q-12 -16 -15 -61q-14 0 -28 -8t-28 -8zM1 -1q45 109 90 236t91 276l23 -2q-1 -5 -3 -11t-4 -15l-118 -467q-2 -1 -8 -5t-20 -11q-26 -15 -28 -15q-13 0 -19 2q1 3 -1 7t-3 5z"/>
<glyph glyph-name="cent" horiz-adv-x="312" unicode="¢" d="M200 504q-100 -13 -100 -125q0 -46 36 -77q8 28 24 78t40 124zM116 240q-34 11 -56 39q-23 29 -23 65q0 67 53 124q51 53 121 69l23 73h30l-22 -68h11h5q15 0 40 -5q34 -7 34 -21q2 -8 -27 -23q-27 -15 -36 -15q-2 0 -19 11q-17 12 -21 13q-9 -28 -26 -82t-42 -133 q19 -9 45 -9q23 0 39 10q5 2 17 11t31 23q10 6 12 -6q2 -27 -64 -55q-60 -26 -89 -26h-8l-23 -73h-30z"/>
<glyph glyph-name="sterling" horiz-adv-x="667" unicode="£" d="M429 270l-6 15q66 28 114 81q68 76 68 182q0 59 -16 91q-32 65 -119 65q-66 0 -125 -53q-29 -27 -47 -59q-23 -39 -54 -190l-6 -28t-7 -26h175l-7 -22l-173 -1q-12 -41 -18 -60q-21 -65 -39 -99q-17 -32 -48 -71t-77 -85q61 22 120 36q44 10 92 17t102 12q34 3 60 3 q106 0 226 -35q-47 -68 -68 -112l-11 4l18 49q-11 4 -23 8t-28 8q-102 28 -232 28q-107 0 -201 -20q-11 -2 -33 -8t-59 -16l-4 7q16 19 54 75q19 28 40 92t46 167h-134l9 23h130q11 48 23 86t23 64q37 84 103 145q88 80 187 80q38 0 62 -7q58 -16 94 -60t36 -105 q0 -90 -87 -175q-35 -34 -75 -60t-85 -46z"/>
<glyph glyph-name="currency" horiz-adv-x="403" unicode="¤" d="M202 340q-48 0 -83 -35q-34 -34 -34 -83t34 -83t83 -34q24 -1 46 9t37 26q16 16 25 38t9 45q0 48 -35 83q-34 34 -82 34zM46 85l44 44q-34 46 -34 93q0 53 34 94l-45 44l19 19l44 -44q45 33 94 33q52 0 93 -33l44 44l19 -19l-44 -44q33 -47 33 -94q0 -45 -33 -93l44 -44 l-19 -19l-44 44q-44 -33 -93 -33q-53 0 -93 33l-45 -43z"/>
<glyph glyph-name="yen" horiz-adv-x="816" unicode="¥" d="M497 122h18l19 48l-15 -20t-22 -28zM451 94h-184q21 -62 78 -62q34 0 60 19q17 11 46 43zM535 204h-276q-1 -15 -1 -28q0 -33 4 -56l214 2q20 23 34 43t25 39zM504 94h-32q-91 -103 -169 -103q-81 0 -106 103q-103 0 -164 -6l31 30l129 2q-1 12 -1 22v18v19t1 25 q-74 0 -132 -6l31 30l102 2q1 4 4 39t9 102q5 57 7 91t3 46q0 41 -18 70l67 36l10 5q13 0 13 -53q0 -16 -3 -58t-10 -112q-8 -78 -12 -120t-4 -46l289 2q8 20 33 94q43 127 96 257l68 35q3 1 5 1h2q3 -2 3 -5q0 -6 -28 -74q-18 -46 -47 -122t-71 -185q23 0 128 3l-30 -31 q-11 -1 -39 -1h-70q-2 -8 -10 -28t-21 -54h24t48 1t48 1t22 1l-30 -31h-123q-45 -101 -144 -175q-112 -82 -244 -82q-61 0 -125 18q-47 -9 -70 -9q-24 0 -24 12t41 39q41 26 72 26q21 0 93 -22q51 -16 108 -16q101 0 161 67q35 40 79 142z"/>
<glyph glyph-name="brokenbar" horiz-adv-x="231" unicode="¦" d="M95 175h41v-349h-41v349zM95 675h41v-350h-41v350z"/>
<glyph glyph-name="section" horiz-adv-x="562" unicode="§" d="M200 477q-11 -4 -24 -11q-36 -20 -36 -68q0 -42 44 -94q10 -14 18 -22t13 -12l15 -14q14 -14 43 -39q25 -23 59 -56q14 -7 53 -56l6 -9t10 -18q3 3 21 16q34 25 34 70q0 30 -26 68q-22 31 -90 92q-14 12 -54 51q-28 27 -50 53t-36 49zM590 671q-10 -20 -18 -40t-17 -39 q-104 80 -200 80q-57 0 -94 -30q-12 -27 -12 -50q0 -70 93 -158l56 -50t56 -51q73 -72 73 -118q0 -62 -60 -111q-21 -18 -60 -39q9 -35 9 -49q0 -78 -82 -136q-67 -49 -171 -49q-82 0 -152 33q-7 4 -18 10t-26 15q2 5 7 13t12 20q3 6 8 17t13 27q26 -22 60 -40t77 -34 q66 -23 114 -23q18 0 30 4q48 43 48 96q0 81 -117 185q-31 26 -57 52l-50 50q-50 53 -50 97q0 64 68 108q18 13 64 30q-7 18 -7 47q0 47 42 97q69 81 191 81q74 0 170 -45z"/>
<glyph glyph-name="dieresis" horiz-adv-x="295" unicode="¨" d="M134 432q1 -7 -7 -19q-23 -30 -33 -48l-56 -11q-9 -4 -14 -4q-4 0 -4 3l5 7q5 8 16 22t17 26t9 20q10 -3 23 -3q15 0 28 4l14 4q2 0 2 -1zM264 430q0 -7 -7 -17q-23 -30 -33 -48l-56 -11q-9 -4 -14 -4q-4 0 -4 3l5 7q5 8 16 22t17 26t9 20q10 -3 23 -3q15 0 28 4l14 4 q2 0 2 -3z"/>
<glyph glyph-name="copyright" horiz-adv-x="900" unicode="©" d="M701 576q0 -20 -13 -38t-32 -18q-28 0 -28 12q0 7 1 9v6q0 18 -47 32q-33 10 -61 10q-101 0 -172 -98q-63 -89 -63 -194q0 -81 43 -125t124 -43q44 0 83 16q20 8 85 44q21 -8 21 -18q0 -29 -96 -63q-42 -14 -74 -21t-51 -8h-6q-83 0 -144 51q-65 55 -67 141v5 q0 145 111 253q113 110 261 110q36 0 75 -14q50 -18 50 -49zM890 415q0 -218 -138 -333q-130 -107 -350 -107q-172 0 -290 135q-107 122 -107 259q0 45 7 83q6 38 22 74q16 34 40 65t59 61q94 85 215 115q92 23 246 23q11 0 25 -2t31 -3q44 -6 44 -15t-15 -9q-20 0 -57 3 q-38 3 -57 3q-235 0 -368 -116q-56 -49 -94 -114q-42 -74 -42 -139q0 -165 115 -277q115 -111 280 -111q188 0 285 106q95 103 95 292q0 129 -78 209q-78 79 -208 79q-49 0 -126 -20q-79 -22 -115 -50q-51 -42 -86 -90q-41 -57 -41 -100q0 -7 1 -13q-8 7 -24 15 q-11 6 -11 11q0 54 54 117q23 26 48 48t53 38q115 68 281 68q150 0 228 -78t78 -227z"/>
<glyph glyph-name="ordfeminine" horiz-adv-x="229" unicode="ª" d="M201 566q-13 4 -35 4q-37 0 -64 -41t-27 -74q0 -19 19 -19q47 0 107 130zM248 595q-60 -125 -60 -159q0 -18 26 -18h8q8 0 23 2q4 0 4 -3q0 -4 -6 -5q-27 -5 -45 -8t-26 -3q-26 0 -26 22q0 15 12 47q-53 -69 -93 -69q-33 0 -33 36q0 48 50 100q58 60 140 60q8 -1 14 -1 t12 -1z"/>
<glyph glyph-name="guillemotleft" horiz-adv-x="331" unicode="«" d="M260 255l14 -17q-22 -14 -44 -30t-44 -33q17 -23 34 -47t36 -51l-47 -31q-14 23 -33 51t-44 62q28 20 60 44t68 52zM149 255l14 -17q-22 -14 -44 -30t-44 -33q17 -23 34 -47t36 -51l-47 -31q-14 23 -33 51t-44 62l32 24z"/>
<glyph glyph-name="logicalnot" horiz-adv-x="551" unicode="¬" d="M95 164v41h361v-180h-41v139h-320z"/>
<glyph glyph-name="registered" horiz-adv-x="900" unicode="®" d="M438 529q3 0 3 -6q0 -15 -36 -106q-41 -104 -57 -159q-10 -40 -20 -73t-18 -60q-8 -5 -16 -11t-19 -13q-13 -10 -17 -10q-13 0 -13 20q0 16 40 161q11 40 23 72t23 55l56 109q28 21 51 21zM890 415q0 -218 -138 -333q-130 -107 -350 -107q-172 0 -290 135 q-107 122 -107 259q0 45 7 83q6 38 22 74q16 34 40 65t59 61q94 85 215 115q92 23 246 23q11 0 25 -2t31 -3q44 -6 44 -15t-15 -9q-20 0 -57 3q-38 3 -57 3q-235 0 -368 -116q-56 -49 -94 -114q-42 -74 -42 -139q0 -165 115 -277q115 -111 280 -111q188 0 285 106 q95 103 95 292q0 129 -78 209q-78 79 -208 79q-49 0 -126 -20q-79 -22 -115 -50q-51 -42 -86 -90q-41 -57 -41 -100q0 -7 1 -13q-8 7 -24 15q-11 6 -11 11q0 54 54 117q23 26 48 48t53 38q115 68 281 68q150 0 228 -78t78 -227zM762 509q0 -41 -40 -83q-35 -35 -80 -54 l-159 -68q-30 -14 -30 -23q0 -23 67 -69q89 -62 117 -62q10 0 55 48l20 -24q-32 -34 -50 -52l-22 -22q-14 -13 -29 -13q-41 0 -124 62q-111 82 -111 126q0 31 44 48l147 58q44 17 79 44q49 37 49 71q0 57 -148 57q-129 0 -235 -33l-34 -11q-15 0 -15 16q0 6 13 22 q19 23 28 38q18 12 118 22q44 5 76 7t52 3q76 0 130 -19q82 -28 82 -89z"/>
<glyph glyph-name="degree" horiz-adv-x="331" unicode="°" d="M196 403q-30 1 -52 -21t-22 -53q0 -30 22 -52t52 -22t52 22t22 52q0 31 -22 53t-52 21zM196 430q21 0 39 -8t32 -22t22 -32t8 -39t-8 -39q-7 -18 -21 -32t-32 -22t-40 -8t-40 8t-32 22t-21 32q-8 18 -8 39t8 39t22 32t32 22t39 8z"/>
<glyph glyph-name="plusminus" horiz-adv-x="551" unicode="±" d="M96 41h319v-41h-319v41zM276 85h-41v139h-139v41h139v139h41v-139h139v-41h-139v-139z"/>
<glyph glyph-name="twosuperior" horiz-adv-x="341" unicode="²" d="M153 452q63 16 106 16q76 0 76 -45q0 -33 -51 -76q-12 -11 -54 -41t-115 -82q19 2 44 4t56 1q102 0 102 -9q0 -2 -17 -22q-10 -14 -14 -18t-7 -4t-3 3q0 1 1 3t1 3q0 5 -22 6q-16 1 -38 1t-52 1q-75 0 -111 -10q-11 -3 -14 -3t-3 4q0 6 13 13q70 41 163 117q62 51 62 83 q0 33 -51 33q-39 0 -88 -17l-12 -5q-2 2 -2 3q1 3 5 7q2 2 25 34z"/>
<glyph glyph-name="threesuperior" horiz-adv-x="321" unicode="³" d="M165 346q41 4 79 17q50 17 50 40q0 28 -85 28q-39 0 -67 -6q-2 -1 -8 -2t-13 -3q-3 1 -3 2t5 4q18 10 43 38q19 2 37 3t35 1q49 0 79 -14q25 -13 25 -30q0 -53 -157 -90q-3 0 -18 -5l66 -33q44 -23 44 -39q0 -33 -53 -77q-61 -52 -137 -52q-11 0 -17 7l-12 14q0 3 3 3 q7 -2 11 -2h2q21 -3 28 -3q44 0 87 23q42 24 42 55q0 6 -2 11q-2 4 -8 10t-18 13t-33 18q-48 25 -48 33q0 4 12 12l16 12t15 12z"/>
<glyph glyph-name="acute" horiz-adv-x="333" unicode="´" d="M230 467q0 -20 -19 -33l-103 -69h-40l88 113q16 22 40 22q34 0 34 -33z"/>
<glyph glyph-name="paragraph" horiz-adv-x="513" unicode="¶" d="M239 680h229v-20q-59 -6 -72 -19q-6 -11 -6 -75v-452q0 -51 4 -68q3 -14 24 -18q6 -2 18 -4t32 -4v-20h-131v647h-54v-647h-131v20q39 4 50 8q21 4 24 18q4 12 4 68v207q-90 1 -140 54q-45 48 -45 122q0 72 50 125q55 58 144 58z"/>
<glyph glyph-name="cedilla" horiz-adv-x="198" unicode="¸" d="M92 5l-23 -29h3q61 0 61 -48q0 -54 -130 -96l-9 19q16 2 30 6t27 11q33 18 33 45q0 33 -40 33q-11 0 -21 -3l45 62h24z"/>
<glyph glyph-name="onesuperior" horiz-adv-x="241" unicode="¹" d="M96 379v15l147 84q4 0 6 -3q-1 -2 -1 -4q0 -1 -1 -3l-98 -273l-45 -15q-1 0 -2 1q0 1 2 7l85 239z"/>
<glyph glyph-name="ordmasculine" horiz-adv-x="201" unicode="º" d="M83 459q0 -42 28 -42q25 0 42 41q12 31 12 65q0 25 -3 39q-3 0 -19 4q-24 -15 -42 -48t-18 -59zM136 576q-10 7 -15 19q0 3 9 3q15 0 38 13q2 0 20 -19q8 -8 27 -8q9 1 10 0q3 0 3 -3q0 1 -25 -18q0 -4 1 -9v-12q0 -75 -57 -121q-33 -27 -64 -27q-40 0 -40 51q0 45 33 84 q20 25 60 47z"/>
<glyph glyph-name="guillemotright" horiz-adv-x="331" unicode="»" d="M28 46l-14 16q14 10 36 26t52 38q-20 28 -38 52t-32 46l47 31q14 -23 33 -51t44 -62l-32 -24zM140 46l-14 16l44 32l44 32q-14 19 -32 43t-38 55l47 31q34 -58 77 -113z"/>
<glyph glyph-name="onequarter" horiz-adv-x="691" unicode="¼" d="M96 379v15l147 84q4 0 6 -3q-1 -2 -1 -4q0 -1 -1 -3l-98 -273l-45 -15q-1 0 -2 1q0 1 2 7l85 239zM103 -14l376 536q9 2 17 4t14 3q5 0 -6 -14l-373 -529q-7 -2 -15 -4t-13 -3q-2 0 -2 2zM357 84q33 5 69 8t73 3q17 45 31 81t24 64q2 4 4 14t7 24q2 0 8 2t16 6q18 7 21 7 q3 -2 3 -4q-28 -69 -47 -117t-29 -76h10q7 0 17 1h28q49 0 49 -7q-4 -6 -9 -13t-10 -15q-8 -11 -10 -11l-12 6q-14 6 -76 6q-4 -11 -8 -23t-8 -29q-5 -3 -13 -5t-21 -7q-5 -3 -8 -3q-2 0 -2 2q0 1 23 65q-79 0 -137 -9q-2 0 -7 -1t-11 -1t-10 -2l-4 -1q-4 0 -4 4q1 1 4 5 t8 8q29 27 73 96q22 34 38 63t27 55q20 3 41 10q4 1 5 1t1 -3q0 -5 -9 -18q-64 -99 -145 -186z"/>
<glyph glyph-name="onehalf" horiz-adv-x="673" unicode="½" d="M96 379v15l147 84q4 0 6 -3q-1 -2 -1 -4q0 -1 -1 -3l-98 -273l-45 -15q-1 0 -2 1q0 1 2 7l85 239zM103 -14l376 536q9 2 17 4t14 3q5 0 -6 -14l-373 -529q-7 -2 -15 -4t-13 -3q-2 0 -2 2zM433 259q63 16 106 16q76 0 76 -45q0 -33 -51 -76q-12 -10 -54 -40t-115 -83 q19 1 44 3t56 2q102 0 102 -9q0 -2 -17 -22q-10 -13 -14 -17t-7 -4t-3 3q0 1 1 3t1 3q0 5 -22 6q-16 1 -39 1h-51q-74 0 -111 -9q-11 -3 -14 -3t-3 4q0 5 13 12q70 41 163 117q62 51 62 83q0 33 -51 33q-39 0 -88 -17l-12 -5q-2 2 -2 3q1 3 5 7q2 2 25 34z"/>
<glyph glyph-name="threequarters" horiz-adv-x="741" unicode="¾" d="M183 -14l376 536q9 2 17 4t14 3q5 0 -6 -14l-373 -529q-7 -2 -15 -4t-13 -3q-2 0 -2 2zM417 84q33 5 69 8t73 3q17 45 31 81t24 64q2 4 4 14t7 24q2 0 8 2t16 6q18 7 21 7q3 -2 3 -3l-76 -194h10q7 0 17 1h28q49 0 49 -7q-4 -6 -9 -13t-10 -15q-8 -11 -10 -11l-12 6 q-14 6 -76 6q-4 -11 -8 -23t-8 -29q-5 -3 -13 -5t-21 -7q-5 -3 -8 -3q-2 0 -2 2q0 1 23 65q-79 0 -137 -9q-2 0 -7 -1t-11 -1t-10 -2l-4 -1q-4 0 -4 4q1 1 4 5t8 8q29 27 73 96q22 34 38 63t27 55q20 3 41 10q4 1 5 1t1 -3q0 -5 -9 -18q-64 -99 -145 -186zM258 474 q49 0 79 -14q25 -13 25 -30q0 -53 -157 -90q-3 0 -18 -5l66 -33q44 -23 44 -39q0 -33 -53 -77q-61 -52 -137 -52q-11 0 -17 7l-12 14q0 3 3 3q7 -2 11 -2h2q21 -3 28 -3q44 0 87 23q42 24 42 55q0 6 -2 11q-2 4 -8 10t-18 13t-33 18q-48 25 -48 33q0 4 12 12l16 12t15 12 q41 4 79 17q50 17 50 40q0 28 -85 28q-39 0 -67 -6q-2 -1 -8 -2t-13 -3q-3 1 -3 2t5 4q18 10 43 38q19 2 37 3t35 1z"/>
<glyph glyph-name="questiondown" horiz-adv-x="395" unicode="¿" d="M338 597q-8 0 -8 20q0 66 76 66q3 -6 3 -9q-12 -16 -15 -61q-14 0 -28 -8t-28 -8zM186 304q12 11 34 30t51 47q11 11 25 64q10 43 34 43q18 0 18 -51q0 -44 -37 -90q-24 -30 -79 -76q-30 -25 -50 -43t-31 -31q-40 -44 -40 -94q1 -21 9 -39t23 -30t35 -19t40 -7 q59 0 97 23q47 27 47 82q0 7 -3 15t-8 16t-11 13q-6 6 -12 7q-6 2 -12 3l-12 2q-16 4 -16 15q0 17 29 31q25 12 44 12q24 0 41 -26q14 -23 14 -49q0 -85 -78 -131q-65 -36 -156 -36q-57 0 -94 30q-41 35 -41 88q0 61 44 114q15 14 39 36t56 51z"/>
<glyph glyph-name="Agrave" d="M731 746h-40l-103 69q-19 13 -19 33q0 33 34 33q24 0 40 -22zM423 248l-155 4h-10q-71 0 -126 -27q-73 -36 -73 -107q0 -16 8 -30t21 -24q14 -10 30 -15t34 -5q122 0 271 204zM831 323q1 -15 -21 -36q-20 -20 -38 -28q-13 -5 -70 -18l-54 -169q-3 -11 -3 -18 q0 -12 11 -12q26 0 96 58l15 -12q-17 -12 -41 -32t-59 -46q-29 -21 -58 -21q-43 0 -43 41q0 5 2 15l56 200h-149q-78 -91 -132 -136q-141 -114 -259 -116q-42 1 -69 23q-27 23 -27 65q0 97 132 164q112 56 221 56h120q83 104 140 248q58 33 65 33q6 0 6 -8q0 -7 -5 -22 l-148 -256h125q0 6 89 281q3 9 3 18q0 33 -25 33q-35 0 -96 -19q-56 -17 -56 -19h1q-10 0 -10 9q0 5 65 76q57 16 99 16q98 0 98 -73q0 -8 -2 -16q-91 -288 -91 -306h5q28 0 50 10q2 0 14 8t36 23q2 -1 4 -5t3 -9z" unicode="À"/>
<glyph glyph-name="Aacute" d="M685 746l88 113q16 22 40 22q34 0 34 -33q0 -20 -19 -33l-103 -69h-40zM423 248l-155 4h-10q-71 0 -126 -27q-73 -36 -73 -107q0 -16 8 -30t21 -24q14 -10 30 -15t34 -5q122 0 271 204zM831 323q1 -15 -21 -36q-20 -20 -38 -28q-13 -5 -70 -18l-54 -169q-3 -11 -3 -18 q0 -12 11 -12q26 0 96 58l15 -12q-17 -12 -41 -32t-59 -46q-29 -21 -58 -21q-43 0 -43 41q0 5 2 15l56 200h-149q-78 -91 -132 -136q-141 -114 -259 -116q-42 1 -69 23q-27 23 -27 65q0 97 132 164q112 56 221 56h120q83 104 140 248q58 33 65 33q6 0 6 -8q0 -7 -5 -22 l-148 -256h125q0 6 89 281q3 9 3 18q0 33 -25 33q-35 0 -96 -19q-56 -17 -56 -19h1q-10 0 -10 9q0 5 65 76q57 16 99 16q98 0 98 -73q0 -8 -2 -16q-91 -288 -91 -306h5q28 0 50 10q2 0 14 8t36 23q2 -1 4 -5t3 -9z" unicode="Á"/>
<glyph glyph-name="Acircumflex" d="M631 749l-4 10q75 40 161 126q21 -47 54 -96q-19 -13 -44 -39l-16 28t-14 30q-23 -16 -57 -30t-80 -29zM423 248l-155 4h-10q-71 0 -126 -27q-73 -36 -73 -107q0 -16 8 -30t21 -24q14 -10 30 -15t34 -5q122 0 271 204zM831 323q1 -15 -21 -36q-20 -20 -38 -28 q-13 -5 -70 -18l-54 -169q-3 -11 -3 -18q0 -12 11 -12q26 0 96 58l15 -12q-17 -12 -41 -32t-59 -46q-29 -21 -58 -21q-43 0 -43 41q0 5 2 15l56 200h-149q-78 -91 -132 -136q-141 -114 -259 -116q-42 1 -69 23q-27 23 -27 65q0 97 132 164q112 56 221 56h120q83 104 140 248 q58 33 65 33q6 0 6 -8q0 -7 -5 -22l-148 -256h125q0 6 89 281q3 9 3 18q0 33 -25 33q-35 0 -96 -19q-56 -17 -56 -19h1q-10 0 -10 9q0 5 65 76q57 16 99 16q98 0 98 -73q0 -8 -2 -16q-91 -288 -91 -306h5q28 0 50 10q2 0 14 8t36 23q2 -1 4 -5t3 -9z" unicode="Â"/>
<glyph glyph-name="Atilde" d="M890 833l7 -7q-39 -53 -81 -72q-19 -8 -44 -8q-31 0 -54 10q-39 16 -47 16q-9 0 -30 -22l-7 5q54 87 72 87q4 0 45 -21q43 -20 67 -20q26 0 72 32zM423 248l-155 4h-10q-71 0 -126 -27q-73 -36 -73 -107q0 -16 8 -30t21 -24q14 -10 30 -15t34 -5q122 0 271 204zM831 323 q1 -15 -21 -36q-20 -20 -38 -28q-13 -5 -70 -18l-54 -169q-3 -11 -3 -18q0 -12 11 -12q26 0 96 58l15 -12q-17 -12 -41 -32t-59 -46q-29 -21 -58 -21q-43 0 -43 41q0 5 2 15l56 200h-149q-78 -91 -132 -136q-141 -114 -259 -116q-42 1 -69 23q-27 23 -27 65q0 97 132 164 q112 56 221 56h120q83 104 140 248q58 33 65 33q6 0 6 -8q0 -7 -5 -22l-148 -256h125q0 6 89 281q3 9 3 18q0 33 -25 33q-35 0 -96 -19q-56 -17 -56 -19h1q-10 0 -10 9q0 5 65 76q57 16 99 16q98 0 98 -73q0 -8 -2 -16q-91 -288 -91 -306h5q28 0 50 10q2 0 14 8t36 23 q2 -1 4 -5t3 -9z" unicode="Ã"/>
<glyph glyph-name="Adieresis" d="M745 829q1 -7 -7 -19q-23 -30 -33 -48l-56 -11q-9 -4 -14 -4q-4 0 -4 3l5 8q5 8 16 21q12 14 18 26t8 20q10 -3 23 -3q15 0 28 4l14 4q2 0 2 -1zM875 827q0 -7 -7 -17q-23 -30 -33 -48l-56 -11q-9 -4 -14 -4q-4 0 -4 3l5 8q5 8 16 21q12 14 18 26t8 20q10 -3 23 -3 q15 0 28 4l14 4q2 0 2 -3zM423 248l-155 4h-10q-71 0 -126 -27q-73 -36 -73 -107q0 -16 8 -30t21 -24q14 -10 30 -15t34 -5q122 0 271 204zM831 323q1 -15 -21 -36q-20 -20 -38 -28q-13 -5 -70 -18l-54 -169q-3 -11 -3 -18q0 -12 11 -12q26 0 96 58l15 -12q-17 -12 -41 -32 t-59 -46q-29 -21 -58 -21q-43 0 -43 41q0 5 2 15l56 200h-149q-78 -91 -132 -136q-141 -114 -259 -116q-42 1 -69 23q-27 23 -27 65q0 97 132 164q112 56 221 56h120q83 104 140 248q58 33 65 33q6 0 6 -8q0 -7 -5 -22l-148 -256h125q0 6 89 281q3 9 3 18q0 33 -25 33 q-35 0 -96 -19q-56 -17 -56 -19h1q-10 0 -10 9q0 5 65 76q57 16 99 16q98 0 98 -73q0 -8 -2 -16q-91 -288 -91 -306h5q28 0 50 10q2 0 14 8t36 23q2 -1 4 -5t3 -9z" unicode="Ä"/>
<glyph glyph-name="Aring" d="M726 880q-8 0 -16 -4q-35 -15 -35 -51q0 -25 16 -41t41 -16q24 0 40 16t15 40q1 26 -17 42q-16 15 -41 14h-3zM725 898h9q15 0 26 -5q45 -20 45 -68q0 -31 -21 -53t-53 -22q-33 0 -53 20t-21 53q0 18 4 27q17 44 64 48zM423 248l-155 4h-10q-71 0 -126 -27 q-73 -36 -73 -107q0 -16 8 -30t21 -24q14 -10 30 -15t34 -5q122 0 271 204zM831 323q1 -15 -21 -36q-20 -20 -38 -28q-13 -5 -70 -18l-54 -169q-3 -11 -3 -18q0 -12 11 -12q26 0 96 58l15 -12q-17 -12 -41 -32t-59 -46q-29 -21 -58 -21q-43 0 -43 41q0 5 2 15l56 200h-149 q-78 -91 -132 -136q-141 -114 -259 -116q-42 1 -69 23q-27 23 -27 65q0 97 132 164q112 56 221 56h120q83 104 140 248q58 33 65 33q6 0 6 -8q0 -7 -5 -22l-148 -256h125q0 6 89 281q3 9 3 18q0 33 -25 33q-35 0 -96 -19q-56 -17 -56 -19h1q-10 0 -10 9q0 5 65 76 q57 16 99 16q98 0 98 -73q0 -8 -2 -16q-91 -288 -91 -306h5q28 0 50 10q2 0 14 8t36 23q2 -1 4 -5t3 -9z" unicode="Å"/>
<glyph glyph-name="AE" horiz-adv-x="1167" unicode="Æ" d="M850 -23q64 0 127 31q76 39 76 96q0 22 -30 33q3 42 53 42q22 -1 37 -17t15 -39q0 -60 -91 -112q-89 -52 -190 -52q-140 0 -196 41q-22 -11 -42 -11q-43 0 -43 41q0 19 25 104l33 111h-149q-216 -252 -391 -252q-42 1 -69 23t-27 62q0 81 107 152q109 71 246 71h120 q83 104 140 248q58 33 65 33q6 0 6 -8q0 -14 -5 -22l-148 -256h125q1 8 11 42t30 95l48 144q3 10 3 18q0 33 -25 33q-55 0 -103 -19l-47 -18l-1 -1q-10 -1 -10 9q0 5 65 76q57 16 99 16q98 0 98 -73q0 -10 -15 -58q47 49 120 74q66 25 140 25q42 0 78 -14q46 -19 46 -57 q0 -24 -20 -41t-45 -17q-21 0 -34 15q21 22 21 40q0 23 -39 37q-27 10 -58 10q-61 0 -122 -40q-68 -44 -68 -100q0 -50 79 -72q29 -5 59 -11t59 -12q10 -1 10 -12q0 -9 -47 -41q-106 -18 -192 -80q-100 -73 -100 -171q0 -21 8 -37q22 -37 69 -58q43 -21 89 -21zM907 346 q-59 17 -86 30q-51 24 -63 59q-20 -63 -39 -139q18 7 41 14t52 14q24 5 48 11t47 11zM423 248q-81 2 -122 3t-43 1q-74 0 -130 -29q-69 -38 -69 -105q0 -34 30 -55q26 -19 63 -19q122 0 271 204z"/>
<glyph glyph-name="Ccedilla" horiz-adv-x="625" unicode="Ç" d="M324 -19l-7 -9h3q61 0 61 -48q0 -54 -130 -96l-10 19q16 2 30 6t27 11q34 18 34 45q0 33 -40 33q-11 0 -21 -3l30 42q-104 3 -178 66q-78 68 -78 174q0 187 140 324q140 139 330 139q45 0 90 -15q61 -19 61 -56q0 -10 -4 -21t-10 -20t-16 -15q-8 -6 -17 -6q-26 0 -26 6 q0 8 1 11v8q0 30 -64 49q-48 16 -87 16q-136 0 -229 -130q-85 -118 -85 -259q0 -227 227 -227q58 0 109 20q20 7 112 57q12 -5 12 -12q0 -28 -99 -68q-94 -38 -166 -41z"/>
<glyph glyph-name="Egrave" horiz-adv-x="580" unicode="È" d="M474 747h-40l-103 69q-19 12 -19 33q0 33 34 33q24 0 40 -22zM594 588q0 -24 -20 -41t-45 -17q-21 0 -34 15q21 22 21 40q0 23 -39 37q-27 10 -58 10q-60 0 -121 -40q-69 -44 -69 -100q0 -45 64 -67q32 -11 133 -28q10 -1 10 -12q0 -9 -47 -41q-83 -13 -168 -65 q-124 -76 -124 -188q0 -51 59 -85q52 -29 107 -29q63 0 126 31q77 39 77 96q0 22 -30 33q3 40 53 42q22 -1 37 -17t15 -39q0 -71 -109 -122q-92 -42 -172 -42q-107 0 -161 22q-83 33 -83 122q0 87 123 164q87 55 181 79q-76 23 -100 36q-54 31 -54 83q0 87 113 146 q95 47 191 48q42 0 78 -14q46 -19 46 -57z"/>
<glyph glyph-name="Eacute" horiz-adv-x="580" unicode="É" d="M433 747l88 113q16 22 40 22q34 0 34 -33q0 -21 -19 -33l-103 -69h-40zM594 588q0 -24 -20 -41t-45 -17q-21 0 -34 15q21 22 21 40q0 23 -39 37q-27 10 -58 10q-60 0 -121 -40q-69 -44 -69 -100q0 -45 64 -67q32 -11 133 -28q10 -1 10 -12q0 -9 -47 -41q-83 -13 -168 -65 q-124 -76 -124 -188q0 -51 59 -85q52 -29 107 -29q63 0 126 31q77 39 77 96q0 22 -30 33q3 40 53 42q22 -1 37 -17t15 -39q0 -71 -109 -122q-92 -42 -172 -42q-107 0 -161 22q-83 33 -83 122q0 87 123 164q87 55 181 79q-76 23 -100 36q-54 31 -54 83q0 87 113 146 q95 47 191 48q42 0 78 -14q46 -19 46 -57z"/>
<glyph glyph-name="Ecircumflex" horiz-adv-x="580" unicode="Ê" d="M400 750l-4 10q75 40 161 126q21 -47 54 -96q-20 -15 -44 -39q-7 13 -15 27t-15 31q-23 -17 -57 -31t-80 -28zM594 588q0 -24 -20 -41t-45 -17q-21 0 -34 15q21 22 21 40q0 23 -39 37q-27 10 -58 10q-60 0 -121 -40q-69 -44 -69 -100q0 -45 64 -67q32 -11 133 -28 q10 -1 10 -12q0 -9 -47 -41q-83 -13 -168 -65q-124 -76 -124 -188q0 -51 59 -85q52 -29 107 -29q63 0 126 31q77 39 77 96q0 22 -30 33q3 40 53 42q22 -1 37 -17t15 -39q0 -71 -109 -122q-92 -42 -172 -42q-107 0 -161 22q-83 33 -83 122q0 87 123 164q87 55 181 79 q-76 23 -100 36q-54 31 -54 83q0 87 113 146q95 47 191 48q42 0 78 -14q46 -19 46 -57z"/>
<glyph glyph-name="Edieresis" horiz-adv-x="580" unicode="Ë" d="M435 829q1 -7 -7 -19q-23 -30 -33 -48l-56 -11q-9 -4 -14 -4q-4 0 -4 3l5 8q5 8 16 21q12 14 18 26t8 20q10 -3 23 -3q15 0 28 4l14 4q2 0 2 -1zM565 829q1 -7 -7 -19q-23 -30 -33 -48l-56 -11q-9 -4 -14 -4q-4 0 -4 3l5 8q5 8 16 21q12 14 18 26t8 20q10 -3 23 -3 q15 0 28 4l14 4q2 0 2 -1zM594 588q0 -24 -20 -41t-45 -17q-21 0 -34 15q21 22 21 40q0 23 -39 37q-27 10 -58 10q-60 0 -121 -40q-69 -44 -69 -100q0 -45 64 -67q32 -11 133 -28q10 -1 10 -12q0 -9 -47 -41q-83 -13 -168 -65q-124 -76 -124 -188q0 -51 59 -85 q52 -29 107 -29q63 0 126 31q77 39 77 96q0 22 -30 33q3 40 53 42q22 -1 37 -17t15 -39q0 -71 -109 -122q-92 -42 -172 -42q-107 0 -161 22q-83 33 -83 122q0 87 123 164q87 55 181 79q-76 23 -100 36q-54 31 -54 83q0 87 113 146q95 47 191 48q42 0 78 -14q46 -19 46 -57z "/>
<glyph glyph-name="Igrave" horiz-adv-x="648" unicode="Ì" d="M584 747h-40l-103 69q-19 13 -19 33q0 33 34 33q24 0 40 -22zM634 461q-2 -49 -13 -97t-30 -98q-42 -110 -107 -166q-119 -103 -296 -104h-4q-62 0 -109 34q-53 39 -53 102q0 48 34 113q28 53 54 82q109 48 114 48q8 0 8 -7q0 -1 -24 -20q-28 -22 -47 -51 q-79 -119 -79 -190q0 -50 40 -74q32 -20 79 -20h5q177 2 280 168q36 57 60 155q24 94 24 166v87q0 30 -10 33q-12 -10 -26 -20t-33 -19q-48 -27 -78 -28h-3q-24 0 -24 35q0 16 8 45q9 33 21 37q73 29 75 29q9 0 9 -6q0 -5 -12 -27q-12 -23 -12 -34q0 -20 17 -20q34 0 133 87 q9 -6 9 -15q0 -77 -2 -133t-8 -92z"/>
<glyph glyph-name="Iacute" horiz-adv-x="648" unicode="Í" d="M455 747l88 113q16 22 40 22q34 0 34 -33q0 -20 -19 -33l-103 -69h-40zM634 461q-2 -49 -13 -97t-30 -98q-42 -110 -107 -166q-119 -103 -296 -104h-4q-62 0 -109 34q-53 39 -53 102q0 48 34 113q28 53 54 82q109 48 114 48q8 0 8 -7q0 -1 -24 -20q-28 -22 -47 -51 q-79 -119 -79 -190q0 -50 40 -74q32 -20 79 -20h5q177 2 280 168q36 57 60 155q24 94 24 166v87q0 30 -10 33q-12 -10 -26 -20t-33 -19q-48 -27 -78 -28h-3q-24 0 -24 35q0 16 8 45q9 33 21 37q73 29 75 29q9 0 9 -6q0 -5 -12 -27q-12 -23 -12 -34q0 -20 17 -20q34 0 133 87 q9 -6 9 -15q0 -77 -2 -133t-8 -92z"/>
<glyph glyph-name="Icircumflex" horiz-adv-x="648" unicode="Î" d="M461 749l-4 10q75 40 161 126q21 -47 54 -96q-19 -13 -44 -39l-16 28t-14 30q-23 -16 -57 -30t-80 -29zM634 461q-2 -49 -13 -97t-30 -98q-42 -110 -107 -166q-119 -103 -296 -104h-4q-62 0 -109 34q-53 39 -53 102q0 48 34 113q28 53 54 82q109 48 114 48q8 0 8 -7 q0 -1 -24 -20q-28 -22 -47 -51q-79 -119 -79 -190q0 -50 40 -74q32 -20 79 -20h5q177 2 280 168q36 57 60 155q24 94 24 166v87q0 30 -10 33q-12 -10 -26 -20t-33 -19q-48 -27 -78 -28h-3q-24 0 -24 35q0 16 8 45q9 33 21 37q73 29 75 29q9 0 9 -6q0 -5 -12 -27 q-12 -23 -12 -34q0 -20 17 -20q34 0 133 87q9 -6 9 -15q0 -77 -2 -133t-8 -92z"/>
<glyph glyph-name="Idieresis" horiz-adv-x="648" unicode="Ï" d="M558 829q1 -7 -7 -19q-23 -30 -33 -48l-56 -11q-9 -4 -14 -4q-4 0 -4 3l5 8q5 8 16 21q11 14 17 26t9 20q10 -3 23 -3q15 0 28 4l14 4q2 0 2 -1zM688 827q0 -7 -7 -17q-23 -30 -33 -48l-56 -11q-9 -4 -14 -4q-4 0 -4 3l5 8q5 8 16 21q11 14 17 26t9 20q10 -3 23 -3 q15 0 28 4l14 4q2 0 2 -3zM634 461q-2 -49 -13 -97t-30 -98q-42 -110 -107 -166q-119 -103 -296 -104h-4q-62 0 -109 34q-53 39 -53 102q0 48 34 113q28 53 54 82q109 48 114 48q8 0 8 -7q0 -1 -24 -20q-28 -22 -47 -51q-79 -119 -79 -190q0 -50 40 -74q32 -20 79 -20h5 q177 2 280 168q36 57 60 155q24 94 24 166v87q0 30 -10 33q-12 -10 -26 -20t-33 -19q-48 -27 -78 -28h-3q-24 0 -24 35q0 16 8 45q9 33 21 37q73 29 75 29q9 0 9 -6q0 -5 -12 -27q-12 -23 -12 -34q0 -20 17 -20q34 0 133 87q9 -6 9 -15q0 -77 -2 -133t-8 -92z"/>
<glyph glyph-name="Ntilde" horiz-adv-x="915" unicode="Ñ" d="M890 833l7 -7q-39 -53 -81 -72q-19 -8 -44 -8q-31 0 -54 10q-39 16 -47 16q-9 0 -30 -22l-7 5q54 87 72 87q4 0 45 -21q43 -20 67 -20q26 0 72 32zM503 548q2 -10 2 -18q0 -58 -27 -148q-32 -108 -81 -178q-80 -115 -129 -158q-77 -67 -171 -67q-45 0 -73 22t-27 65 q0 52 42 126q19 32 38 56t38 38l88 27q9 0 9 -9q-156 -137 -156 -228q0 -27 19 -50t46 -23q72 0 140 63q27 26 51 58t43 70q67 134 91 316q7 4 21 13t36 25zM984 673l-21 -140q-16 -99 -41 -164q-89 -238 -174 -370q-27 -18 -41 -18q-3 25 -16 95t-36 188q-13 72 -33 138 t-44 127q-17 43 -51 69q-38 27 -81 27q-47 0 -102 -31q-6 1 -6 8l73 77q55 3 81 3q83 0 134 -109q36 -77 57 -156q13 -47 31 -137t45 -223q26 53 40 81l17 34q16 34 28 63t19 55q28 96 36 129q7 31 10 63t4 67q-1 7 -1 17t-1 24t-1 24t-1 17q10 4 30 30q16 21 32 21 q8 0 13 -9z"/>
<glyph glyph-name="Ograve" horiz-adv-x="746" unicode="Ò" d="M474 747h-40l-103 69q-19 12 -19 33q0 33 34 33q24 0 40 -22zM734 388q0 -61 -51 -155q-60 -111 -149 -179q-101 -76 -216 -76q-119 0 -196 74q-75 73 -77 192q-1 175 148 308q143 126 322 128h4q82 0 140 -41q-11 -11 -77 -30q-74 40 -121 40q-137 0 -231 -93 q-108 -107 -108 -296q0 -89 49 -162q61 -91 168 -91h2q132 1 230 123q91 116 91 248q0 46 -20 78q-21 34 -54 34q-5 0 -11 -1q0 23 18 41t41 19q47 0 76 -60q22 -45 22 -101z"/>
<glyph glyph-name="Oacute" horiz-adv-x="746" unicode="Ó" d="M433 747l88 113q16 22 40 22q34 0 34 -33q0 -21 -19 -33l-103 -69h-40zM734 388q0 -61 -51 -155q-60 -111 -149 -179q-101 -76 -216 -76q-119 0 -196 74q-75 73 -77 192q-1 175 148 308q143 126 322 128h4q82 0 140 -41q-11 -11 -77 -30q-74 40 -121 40q-137 0 -231 -93 q-108 -107 -108 -296q0 -89 49 -162q61 -91 168 -91h2q132 1 230 123q91 116 91 248q0 46 -20 78q-21 34 -54 34q-5 0 -11 -1q0 23 18 41t41 19q47 0 76 -60q22 -45 22 -101z"/>
<glyph glyph-name="Ocircumflex" horiz-adv-x="746" unicode="Ô" d="M459 750l-4 10q75 40 161 126q21 -47 54 -96q-8 -6 -19 -16t-25 -23q-8 13 -16 27t-14 31q-23 -17 -57 -31t-80 -28zM734 388q0 -61 -51 -155q-60 -111 -149 -179q-101 -76 -216 -76q-119 0 -196 74q-75 73 -77 192q-1 175 148 308q143 126 322 128h4q82 0 140 -41 q-11 -11 -77 -30q-74 40 -121 40q-137 0 -231 -93q-108 -107 -108 -296q0 -89 49 -162q61 -91 168 -91h2q132 1 230 123q91 116 91 248q0 46 -20 78q-21 34 -54 34q-5 0 -11 -1q0 23 18 41t41 19q47 0 76 -60q22 -45 22 -101z"/>
<glyph glyph-name="Otilde" horiz-adv-x="746" unicode="Õ" d="M656 832l7 -7q-38 -53 -81 -72q-18 -8 -44 -8q-30 0 -54 10q-38 16 -47 16t-30 -22l-7 5q55 87 72 87q5 0 46 -21q43 -20 66 -20q26 0 72 32zM734 388q0 -61 -51 -155q-60 -111 -149 -179q-101 -76 -216 -76q-119 0 -196 74q-75 73 -77 192q-1 175 148 308 q143 126 322 128h4q82 0 140 -41q-11 -11 -77 -30q-74 40 -121 40q-137 0 -231 -93q-108 -107 -108 -296q0 -89 49 -162q61 -91 168 -91h2q132 1 230 123q91 116 91 248q0 46 -20 78q-21 34 -54 34q-5 0 -11 -1q0 23 18 41t41 19q47 0 76 -60q22 -45 22 -101z"/>
<glyph glyph-name="Odieresis" horiz-adv-x="746" unicode="Ö" d="M497 829q1 -7 -7 -19q-23 -30 -33 -48l-56 -11q-9 -4 -14 -4q-4 0 -4 3l5 8q5 8 16 21q12 14 18 26t8 20q10 -3 23 -3q15 0 28 4l14 4q2 0 2 -1zM627 829q1 -7 -7 -19q-23 -30 -33 -48l-56 -11q-9 -4 -14 -4q-4 0 -4 3l5 8q5 8 16 21q12 14 18 26t8 20q10 -3 23 -3 q15 0 28 4l14 4q2 0 2 -1zM734 388q0 -61 -51 -155q-60 -111 -149 -179q-101 -76 -216 -76q-119 0 -196 74q-75 73 -77 192q-1 175 148 308q143 126 322 128h4q82 0 140 -41q-11 -11 -77 -30q-74 40 -121 40q-137 0 -231 -93q-108 -107 -108 -296q0 -89 49 -162 q61 -91 168 -91h2q132 1 230 123q91 116 91 248q0 46 -20 78q-21 34 -54 34q-5 0 -11 -1q0 23 18 41t41 19q47 0 76 -60q22 -45 22 -101z"/>
<glyph glyph-name="multiply" horiz-adv-x="551" unicode="×" d="M252 152l-108 -109l-30 29l109 109l-109 108l30 30l108 -109l108 109l29 -30l-108 -108l108 -109l-29 -29z"/>
<glyph glyph-name="Ugrave" horiz-adv-x="693" unicode="Ù" d="M610 747h-40l-103 69q-19 13 -19 33q0 33 34 33q24 0 40 -22zM760 675q9 0 9 -9q0 -10 -6 -20q-29 -51 -81 -178q-32 -78 -60 -162q-71 -210 -71 -246q0 -24 17 -24q15 0 83 42q12 0 12 -9q-98 -83 -155 -90q-27 0 -27 45q0 81 122 414l-104 -138q-112 -145 -232 -234 q-53 -39 -113 -64q-53 -21 -72 -21q-34 0 -53 33q-17 29 -17 65q0 154 105 324q35 57 69 100t70 73q-29 5 -49 10t-33 9q-53 16 -78 45q9 9 32 22q25 15 33 15q-2 0 64 -26q64 -25 86 -28q101 56 137 56q12 0 12 -9q0 -15 -31 -46t-46 -34q-27 -5 -49 -9t-41 -8 q-49 -43 -105 -152q-52 -100 -69 -173q-29 -127 -29 -153q0 -63 49 -63q25 0 110 56q84 57 127 100q44 45 86 95t83 107q97 136 142 254q66 31 73 31z"/>
<glyph glyph-name="Uacute" horiz-adv-x="693" unicode="Ú" d="M540 747l88 113q16 22 40 22q34 0 34 -33q0 -20 -19 -33l-103 -69h-40zM760 675q9 0 9 -9q0 -10 -6 -20q-29 -51 -81 -178q-32 -78 -60 -162q-71 -210 -71 -246q0 -24 17 -24q15 0 83 42q12 0 12 -9q-98 -83 -155 -90q-27 0 -27 45q0 81 122 414l-104 -138 q-112 -145 -232 -234q-53 -39 -113 -64q-53 -21 -72 -21q-34 0 -53 33q-17 29 -17 65q0 154 105 324q35 57 69 100t70 73q-29 5 -49 10t-33 9q-53 16 -78 45q9 9 32 22q25 15 33 15q-2 0 64 -26q64 -25 86 -28q101 56 137 56q12 0 12 -9q0 -15 -31 -46t-46 -34 q-27 -5 -49 -9t-41 -8q-49 -43 -105 -152q-52 -100 -69 -173q-29 -127 -29 -153q0 -63 49 -63q25 0 110 56q84 57 127 100q44 45 86 95t83 107q97 136 142 254q66 31 73 31z"/>
<glyph glyph-name="Ucircumflex" horiz-adv-x="693" unicode="Û" d="M513 750l-4 10q75 40 161 126q21 -47 54 -96q-20 -15 -44 -39q-8 13 -16 27t-14 31q-23 -17 -57 -31t-80 -28zM760 675q9 0 9 -9q0 -10 -6 -20q-29 -51 -81 -178q-32 -78 -60 -162q-71 -210 -71 -246q0 -24 17 -24q15 0 83 42q12 0 12 -9q-98 -83 -155 -90q-27 0 -27 45 q0 81 122 414l-104 -138q-112 -145 -232 -234q-53 -39 -113 -64q-53 -21 -72 -21q-34 0 -53 33q-17 29 -17 65q0 154 105 324q35 57 69 100t70 73q-29 5 -49 10t-33 9q-53 16 -78 45q9 9 32 22q25 15 33 15q-2 0 64 -26q64 -25 86 -28q101 56 137 56q12 0 12 -9 q0 -15 -31 -46t-46 -34q-27 -5 -49 -9t-41 -8q-49 -43 -105 -152q-52 -100 -69 -173q-29 -127 -29 -153q0 -63 49 -63q25 0 110 56q84 57 127 100q44 45 86 95t83 107q97 136 142 254q66 31 73 31z"/>
<glyph glyph-name="Udieresis" horiz-adv-x="693" unicode="Ü" d="M611 829q1 -7 -7 -19q-23 -30 -33 -48l-56 -11q-9 -4 -14 -4q-4 0 -4 3l5 8q5 8 16 21q12 14 18 26t8 20q10 -3 23 -3q15 0 28 4l14 4q2 0 2 -1zM741 829q1 -7 -7 -19q-23 -30 -33 -48l-56 -11q-9 -4 -14 -4q-4 0 -4 3l5 8q5 8 16 21q12 14 18 26t8 20q10 -3 23 -3 q15 0 28 4l14 4q2 0 2 -1zM760 675q9 0 9 -9q0 -10 -6 -20q-29 -51 -81 -178q-32 -78 -60 -162q-71 -210 -71 -246q0 -24 17 -24q15 0 83 42q12 0 12 -9q-98 -83 -155 -90q-27 0 -27 45q0 81 122 414l-104 -138q-112 -145 -232 -234q-53 -39 -113 -64q-53 -21 -72 -21 q-34 0 -53 33q-17 29 -17 65q0 154 105 324q35 57 69 100t70 73q-29 5 -49 10t-33 9q-53 16 -78 45q9 9 32 22q25 15 33 15q-2 0 64 -26q64 -25 86 -28q101 56 137 56q12 0 12 -9q0 -15 -31 -46t-46 -34q-27 -5 -49 -9t-41 -8q-49 -43 -105 -152q-52 -100 -69 -173 q-29 -127 -29 -153q0 -63 49 -63q25 0 110 56q84 57 127 100q44 45 86 95t83 107q97 136 142 254q66 31 73 31z"/>
<glyph glyph-name="Yacute" horiz-adv-x="744" unicode="Ý" d="M582 747l88 113q16 22 40 22q34 0 34 -33q0 -21 -19 -33l-103 -69h-40zM179 -183q-63 0 -91 9q-54 16 -54 62q0 21 23 38q22 16 45 16q17 0 17 -12q-1 -3 -5 -13t-4 -16q0 -29 41 -49q36 -17 66 -17q85 0 182 79q45 36 77 74t54 80q39 76 66 136t43 104q22 63 33 123 q10 55 10 108v10q-38 -70 -58 -106t-23 -40q-23 -42 -47 -76t-47 -61q-214 -256 -391 -256q-45 0 -72 24t-27 69q0 140 106 300q85 128 162 179q-149 32 -150 50l63 42q100 -44 153 -44q55 46 108 46q24 0 24 -10q0 -18 -73 -64q-29 -14 -80 -18q-111 -90 -181 -236 q-61 -125 -61 -212q0 -48 16 -68q18 -24 63 -24q68 0 172 80q84 65 141 136q163 202 216 379q36 19 75 36q-4 -41 -8 -75t-8 -60q-22 -149 -57 -253q-14 -43 -40 -91t-61 -102q-53 -78 -86 -111q-82 -82 -149 -119q-86 -47 -183 -47z"/>
<glyph glyph-name="germandbls" horiz-adv-x="401" unicode="ß" d="M141 -13l1 12q103 4 143 50q30 34 30 78q0 19 -8 37q-24 57 -88 57q-16 0 -40 -6l-4 8q64 70 93 117q56 94 56 193q0 48 -15 89q-7 -4 -15 -12t-16 -18q-53 -59 -95 -218l-17 -68t-27 -106q-3 -17 -15 -60t-32 -115l-42 -154l-43 -18q8 26 24 88q3 11 7 35t10 61l21 134 q13 79 24 129q36 157 125 260q68 77 150 101q20 -57 20 -97q0 -106 -69 -199q-14 -20 -39 -49t-62 -67q19 4 40 4q50 0 84 -30t34 -81q0 -74 -90 -125q-53 -30 -145 -30z"/>
<glyph glyph-name="agrave" horiz-adv-x="392" unicode="à" d="M247 371h-40l-103 69q-19 13 -19 33q0 33 34 33q24 0 40 -22zM307 247q0 20 -45 20q-67 0 -123 -53t-56 -119q0 -45 40 -45q83 0 184 197zM388 278q-80 -184 -80 -226q0 -17 15 -17q5 0 21 10t24 10q10 0 10 -11q0 -7 -39 -31q-44 -26 -54 -26q-42 0 -42 52q0 35 8 72 q-4 0 -29 -31q-77 -89 -141 -89q-29 0 -48 19t-19 52q0 93 99 166q91 70 190 70q83 0 85 -20z"/>
<glyph glyph-name="aacute" horiz-adv-x="392" unicode="á" d="M225 371l88 113q18 22 40 22q34 0 34 -33q0 -20 -19 -33l-103 -69h-40zM307 247q0 20 -45 20q-67 0 -123 -53t-56 -119q0 -45 40 -45q83 0 184 197zM388 278q-80 -184 -80 -226q0 -17 15 -17q5 0 21 10t24 10q10 0 10 -11q0 -7 -39 -31q-44 -26 -54 -26q-42 0 -42 52 q0 35 8 72q-4 0 -29 -31q-77 -89 -141 -89q-29 0 -48 19t-19 52q0 93 99 166q91 70 190 70q83 0 85 -20z"/>
<glyph glyph-name="acircumflex" horiz-adv-x="392" unicode="â" d="M180 368l-4 10q75 40 161 126q21 -47 54 -96q-18 -13 -44 -39q-7 13 -15 27t-15 31q-23 -17 -57 -31t-80 -28zM307 247q0 20 -45 20q-67 0 -123 -53t-56 -119q0 -45 40 -45q83 0 184 197zM388 278q-80 -184 -80 -226q0 -17 15 -17q5 0 21 10t24 10q10 0 10 -11 q0 -7 -39 -31q-44 -26 -54 -26q-42 0 -42 52q0 35 8 72q-4 0 -29 -31q-77 -89 -141 -89q-29 0 -48 19t-19 52q0 93 99 166q91 70 190 70q83 0 85 -20z"/>
<glyph glyph-name="atilde" horiz-adv-x="392" unicode="ã" d="M388 458l7 -7q-38 -53 -81 -72q-19 -8 -44 -8q-30 0 -54 10q-38 16 -47 16t-30 -22l-7 5q55 87 72 87q5 0 46 -21q43 -20 66 -20q26 0 72 32zM307 247q0 20 -45 20q-67 0 -123 -53t-56 -119q0 -45 40 -45q83 0 184 197zM388 278q-80 -184 -80 -226q0 -17 15 -17 q5 0 21 10t24 10q10 0 10 -11q0 -7 -39 -31q-44 -26 -54 -26q-42 0 -42 52q0 35 8 72q-4 0 -29 -31q-77 -89 -141 -89q-29 0 -48 19t-19 52q0 93 99 166q91 70 190 70q83 0 85 -20z"/>
<glyph glyph-name="adieresis" horiz-adv-x="392" unicode="ä" d="M262 454q1 -7 -7 -19q-23 -30 -33 -48l-56 -11q-9 -4 -14 -4q-4 0 -4 3l5 7q5 8 16 22t17 26t9 20q10 -3 23 -3q15 0 28 4l14 4q2 0 2 -1zM392 452q0 -7 -7 -17q-23 -30 -33 -48l-56 -11q-9 -4 -14 -4q-4 0 -4 3l5 7q5 8 16 22t17 26t9 20q10 -3 23 -3q15 0 28 4l14 4 q2 0 2 -3zM307 247q0 20 -45 20q-67 0 -123 -53t-56 -119q0 -45 40 -45q83 0 184 197zM388 278q-80 -184 -80 -226q0 -17 15 -17q5 0 21 10t24 10q10 0 10 -11q0 -7 -39 -31q-44 -26 -54 -26q-42 0 -42 52q0 35 8 72q-4 0 -29 -31q-77 -89 -141 -89q-29 0 -48 19t-19 52 q0 93 99 166q91 70 190 70q83 0 85 -20z"/>
<glyph glyph-name="aring" horiz-adv-x="392" unicode="å" d="M281 501q-8 0 -16 -4q-35 -15 -35 -51q0 -25 16 -41t41 -16q23 -1 39 15t16 41t-18 41q-16 15 -40 15h-3zM280 519h5q16 0 30 -5q45 -20 45 -68q0 -33 -20 -54t-54 -21q-32 0 -53 20t-21 53q0 18 4 27q17 44 64 48zM307 247q0 20 -45 20q-67 0 -123 -53t-56 -119 q0 -45 40 -45q83 0 184 197zM388 278q-80 -184 -80 -226q0 -17 15 -17q5 0 21 10t24 10q10 0 10 -11q0 -7 -39 -31q-44 -26 -54 -26q-42 0 -42 52q0 35 8 72q-4 0 -29 -31q-77 -89 -141 -89q-29 0 -48 19t-19 52q0 93 99 166q91 70 190 70q83 0 85 -20z"/>
<glyph glyph-name="ae" horiz-adv-x="578" unicode="æ" d="M450 273q-36 0 -67 -51q-29 -47 -29 -84q20 0 73 30q19 10 36 35t17 42q0 28 -30 28zM552 250q0 -50 -81 -93q-29 -15 -59 -27t-65 -20q0 -31 24 -53l3 -4l2 -1q23 -20 52 -20q30 0 56 15q6 2 28 17q13 8 18 8q10 0 10 -8q0 -7 -16 -20q-68 -53 -141 -53q-31 0 -56 14 q-29 -18 -42 -18q-42 0 -42 52q0 35 8 72q-4 0 -29 -31q-77 -89 -141 -89q-29 0 -48 19t-19 52q0 93 99 166q91 70 190 70q83 0 85 -20l-9 -20q53 40 107 40q66 0 66 -48zM307 247q0 20 -45 20q-67 0 -123 -53t-56 -119q0 -45 40 -45q83 0 184 197z"/>
<glyph glyph-name="ccedilla" horiz-adv-x="312" unicode="ç" d="M143 -8l-15 -20h3q61 0 61 -48q0 -54 -130 -96l-10 19q35 5 57 17q34 18 34 45q0 33 -40 33q-11 0 -21 -3l38 52q-44 3 -74 33q-32 30 -31 75q0 78 64 138q65 61 147 61q18 0 44 -6q35 -8 35 -20q2 -8 -27 -23q-27 -15 -36 -15q-3 0 -22 13q-20 14 -29 14q-55 0 -84 -35 t-29 -92q0 -45 30 -73t76 -28q23 0 39 10q5 2 17 11t31 23q10 6 12 -6q1 -18 -53 -50q-48 -26 -87 -29z"/>
<glyph glyph-name="egrave" horiz-adv-x="314" unicode="è" d="M229 370h-40l-103 69q-19 13 -19 33q0 33 34 33q24 0 40 -22zM187 273q-36 0 -67 -51q-29 -47 -29 -84q20 0 73 30q19 10 36 35t17 42q0 28 -30 28zM289 250q0 -50 -81 -93q-30 -15 -60 -27t-64 -20q0 -16 7 -30t18 -24t26 -18q15 -6 30 -6q30 0 56 15q6 2 28 17 q13 8 18 8q10 0 10 -8q0 -7 -16 -20q-68 -53 -141 -53q-42 1 -71 27t-29 68q0 87 73 153q65 59 130 59q66 0 66 -48z"/>
<glyph glyph-name="eacute" horiz-adv-x="314" unicode="é" d="M177 370l88 113q16 22 40 22q34 0 34 -33q0 -20 -19 -33l-103 -69h-40zM187 273q-36 0 -67 -51q-29 -47 -29 -84q20 0 73 30q19 10 36 35t17 42q0 28 -30 28zM289 250q0 -50 -81 -93q-30 -15 -60 -27t-64 -20q0 -16 7 -30t18 -24t26 -18q15 -6 30 -6q30 0 56 15 q6 2 28 17q13 8 18 8q10 0 10 -8q0 -7 -16 -20q-68 -53 -141 -53q-42 1 -71 27t-29 68q0 87 73 153q65 59 130 59q66 0 66 -48z"/>
<glyph glyph-name="ecircumflex" horiz-adv-x="314" unicode="ê" d="M106 369l-4 10q75 40 161 126q21 -47 54 -96q-8 -7 -19 -17t-25 -22q-7 14 -15 28t-15 30q-23 -16 -57 -30t-80 -29zM187 273q-36 0 -67 -51q-29 -47 -29 -84q20 0 73 30q19 10 36 35t17 42q0 28 -30 28zM289 250q0 -50 -81 -93q-30 -15 -60 -27t-64 -20q0 -16 7 -30 t18 -24t26 -18q15 -6 30 -6q30 0 56 15q6 2 28 17q13 8 18 8q10 0 10 -8q0 -7 -16 -20q-68 -53 -141 -53q-42 1 -71 27t-29 68q0 87 73 153q65 59 130 59q66 0 66 -48z"/>
<glyph glyph-name="edieresis" horiz-adv-x="314" unicode="ë" d="M196 454q1 -7 -7 -19q-23 -30 -33 -48l-56 -11q-9 -4 -14 -4q-4 0 -4 3l5 7q5 8 16 22t17 26t9 20q10 -3 23 -3q15 0 28 4l14 4q2 0 2 -1zM326 452q0 -7 -7 -17q-23 -30 -33 -48l-56 -11q-9 -4 -14 -4q-4 0 -4 3l5 7q5 8 16 22t17 26t9 20q10 -3 23 -3q15 0 28 4l14 4 q2 0 2 -3zM187 273q-36 0 -67 -51q-29 -47 -29 -84q20 0 73 30q19 10 36 35t17 42q0 28 -30 28zM289 250q0 -50 -81 -93q-30 -15 -60 -27t-64 -20q0 -16 7 -30t18 -24t26 -18q15 -6 30 -6q30 0 56 15q6 2 28 17q13 8 18 8q10 0 10 -8q0 -7 -16 -20q-68 -53 -141 -53 q-42 1 -71 27t-29 68q0 87 73 153q65 59 130 59q66 0 66 -48z"/>
<glyph glyph-name="igrave" horiz-adv-x="186" unicode="ì" d="M156 370h-40l-103 69q-18 13 -18 33q0 33 33 33q24 0 40 -22zM88 54q0 -21 18 -21q7 0 48 33q10 0 10 -11l-62 -48q-22 -16 -43 -16q-14 -1 -24 13t-10 28q0 51 64 213l-40 -10q-8 0 -8 16q20 4 72 26q51 21 55 21q8 0 8 -9q-16 -24 -50 -114q-38 -99 -38 -121z"/>
<glyph glyph-name="iacute" horiz-adv-x="186" unicode="í" d="M115 370l88 113q16 22 40 22q34 0 34 -33q0 -20 -19 -33l-103 -69h-40zM88 54q0 -21 18 -21q7 0 48 33q10 0 10 -11l-62 -48q-22 -16 -43 -16q-14 -1 -24 13t-10 28q0 51 64 213l-40 -10q-8 0 -8 16q20 4 72 26q51 21 55 21q8 0 8 -9q-16 -24 -50 -114q-38 -99 -38 -121z "/>
<glyph glyph-name="icircumflex" horiz-adv-x="186" unicode="î" d="M36 369l-4 10q75 40 161 126q21 -47 54 -96q-8 -7 -19 -17t-25 -22q-7 14 -15 28t-15 30q-23 -16 -57 -30t-80 -29zM88 54q0 -21 18 -21q7 0 48 33q10 0 10 -11l-62 -48q-22 -16 -43 -16q-14 -1 -24 13t-10 28q0 51 64 213l-40 -10q-8 0 -8 16q20 4 72 26q51 21 55 21 q8 0 8 -9q-16 -24 -50 -114q-38 -99 -38 -121z"/>
<glyph glyph-name="idieresis" horiz-adv-x="186" unicode="ï" d="M141 454q1 -7 -7 -19q-23 -30 -33 -48l-56 -11q-9 -4 -14 -4q-4 0 -4 3l5 7q5 8 16 22q12 14 18 26t8 20q10 -3 23 -3q15 0 28 4l14 4q2 0 2 -1zM271 452q0 -7 -7 -17q-23 -30 -33 -48l-56 -11q-9 -4 -14 -4q-4 0 -4 3l5 7q5 8 16 22q12 14 18 26t8 20q10 -3 23 -3 q15 0 28 4l14 4q2 0 2 -3zM88 54q0 -21 18 -21q7 0 48 33q10 0 10 -11l-62 -48q-22 -16 -43 -16q-14 -1 -24 13t-10 28q0 51 64 213l-40 -10q-8 0 -8 16q20 4 72 26q51 21 55 21q8 0 8 -9q-16 -24 -50 -114q-38 -99 -38 -121z"/>
<glyph glyph-name="ntilde" horiz-adv-x="366" unicode="ñ" d="M350 457l7 -7q-38 -53 -81 -72q-19 -8 -44 -8q-30 0 -54 10q-38 16 -47 16t-30 -22l-7 5q55 87 72 87q4 0 45 -21q43 -20 67 -20q26 0 72 32zM343 256q0 -49 -29 -130q-6 -16 -15 -38t-20 -51q7 3 21 5t32 6q3 0 6 -17q-46 -7 -78 -17t-55 -23q-2 1 -5 3t-8 3 q40 72 66 143q25 66 25 90q0 31 -21 31q-25 0 -93 -86q-60 -76 -103 -153q-10 -4 -27 -12t-41 -19q0 15 16 59l34 90q24 65 30 112l-18 -6t-29 -11q-7 8 -7 15q84 26 111 50q12 0 12 -6q-1 -16 -7 -40t-16 -53q-18 -59 -18 -81q37 52 66 90q67 87 134 88h2q35 0 35 -42z"/>
<glyph glyph-name="ograve" horiz-adv-x="354" unicode="ò" d="M247 371h-40l-103 69q-19 13 -19 33q0 33 34 33q24 0 40 -22zM334 180q0 -73 -58 -131q-58 -56 -135 -58h-5q-48 0 -81 39t-35 93q-1 87 107 144q58 31 123 31q12 0 37 -5q29 -8 29 -16q0 -9 -15 -15l-36 -14q-22 25 -66 25q-51 0 -82 -52q-28 -44 -28 -98q0 -43 26 -73 t68 -30q44 0 71 39q24 34 24 81q0 27 -24 68q41 25 59 25q21 0 21 -53z"/>
<glyph glyph-name="oacute" horiz-adv-x="354" unicode="ó" d="M193 370l88 113q16 22 40 22q34 0 34 -33q0 -20 -19 -33l-103 -69h-40zM334 180q0 -73 -58 -131q-58 -56 -135 -58h-5q-48 0 -81 39t-35 93q-1 87 107 144q58 31 123 31q12 0 37 -5q29 -8 29 -16q0 -9 -15 -15l-36 -14q-22 25 -66 25q-51 0 -82 -52q-28 -44 -28 -98 q0 -43 26 -73t68 -30q44 0 71 39q24 34 24 81q0 27 -24 68q41 25 59 25q21 0 21 -53z"/>
<glyph glyph-name="ocircumflex" horiz-adv-x="354" unicode="ô" d="M149 369l-4 10q75 40 161 126q21 -47 54 -96q-8 -7 -19 -17t-25 -22l-16 28t-14 30q-23 -16 -57 -30t-80 -29zM334 180q0 -73 -58 -131q-58 -56 -135 -58h-5q-48 0 -81 39t-35 93q-1 87 107 144q58 31 123 31q12 0 37 -5q29 -8 29 -16q0 -9 -15 -15l-36 -14 q-22 25 -66 25q-51 0 -82 -52q-28 -44 -28 -98q0 -43 26 -73t68 -30q44 0 71 39q24 34 24 81q0 27 -24 68q41 25 59 25q21 0 21 -53z"/>
<glyph glyph-name="otilde" horiz-adv-x="354" unicode="õ" d="M333 457l7 -7q-38 -53 -81 -72q-19 -8 -44 -8q-30 0 -54 10q-38 16 -47 16t-30 -22l-7 5q55 87 72 87q5 0 46 -21q42 -20 66 -20q26 0 72 32zM334 180q0 -73 -58 -131q-58 -56 -135 -58h-5q-48 0 -81 39t-35 93q-1 87 107 144q58 31 123 31q12 0 37 -5q29 -8 29 -16 q0 -9 -15 -15l-36 -14q-22 25 -66 25q-51 0 -82 -52q-28 -44 -28 -98q0 -43 26 -73t68 -30q44 0 71 39q24 34 24 81q0 27 -24 68q41 25 59 25q21 0 21 -53z"/>
<glyph glyph-name="odieresis" horiz-adv-x="354" unicode="ö" d="M221 454q1 -7 -7 -19q-23 -30 -33 -48l-56 -11q-9 -4 -14 -4q-4 0 -4 3l5 7q5 8 16 22q12 14 18 26t8 20q10 -3 23 -3q15 0 28 4l14 4q2 0 2 -1zM351 452q0 -7 -7 -17q-23 -30 -33 -48l-56 -11q-9 -4 -14 -4q-4 0 -4 3l5 7q5 8 16 22q12 14 18 26t8 20q10 -3 23 -3 q15 0 28 4l14 4q2 0 2 -3zM334 180q0 -73 -58 -131q-58 -56 -135 -58h-5q-48 0 -81 39t-35 93q-1 87 107 144q58 31 123 31q12 0 37 -5q29 -8 29 -16q0 -9 -15 -15l-36 -14q-22 25 -66 25q-51 0 -82 -52q-28 -44 -28 -98q0 -43 26 -73t68 -30q44 0 71 39q24 34 24 81 q0 27 -24 68q41 25 59 25q21 0 21 -53z"/>
<glyph glyph-name="divide" horiz-adv-x="551" unicode="÷" d="M294 61q0 -15 -10 -25t-26 -11q-16 1 -26 11t-10 25t10 25t26 11q16 -1 26 -11t10 -25zM295 308q-1 -16 -11 -26t-25 -10t-25 11t-11 25q1 16 11 26t25 10t25 -10t11 -26zM96 205h319v-41h-319v41z"/>
<glyph glyph-name="ugrave" horiz-adv-x="393" unicode="ù" d="M247 371h-40l-103 69q-19 13 -19 33q0 33 34 33q24 0 40 -22zM297 49q0 -21 22 -21q5 0 22 11l19 11q12 0 12 -10q-8 -7 -18 -15t-26 -16l-28 -14t-23 -8q-19 -1 -29 17t-11 38q0 29 11 62q17 44 18 53q-16 -22 -36 -47t-46 -54q-57 -65 -108 -65q-47 0 -49 53 q-1 73 70 207l-49 -13q-9 -2 -11 15q20 5 43 11t48 17l49 19q8 0 8 -6q0 -5 -21 -39q-26 -45 -36 -71q-41 -112 -41 -119q0 -36 22 -36q24 0 65 44q92 101 136 192q67 33 73 33q2 0 2 -3t-25 -65q-63 -161 -63 -181z"/>
<glyph glyph-name="uacute" horiz-adv-x="393" unicode="ú" d="M225 371l88 113q18 22 40 22q34 0 34 -33q0 -20 -19 -33l-103 -69h-40zM297 49q0 -21 22 -21q5 0 22 11l19 11q12 0 12 -10q-8 -7 -18 -15t-26 -16l-28 -14t-23 -8q-19 -1 -29 17t-11 38q0 29 11 62q17 44 18 53q-16 -22 -36 -47t-46 -54q-57 -65 -108 -65q-47 0 -49 53 q-1 73 70 207l-49 -13q-9 -2 -11 15q20 5 43 11t48 17l49 19q8 0 8 -6q0 -5 -21 -39q-26 -45 -36 -71q-41 -112 -41 -119q0 -36 22 -36q24 0 65 44q92 101 136 192q67 33 73 33q2 0 2 -3t-25 -65q-63 -161 -63 -181z"/>
<glyph glyph-name="ucircumflex" horiz-adv-x="393" unicode="û" d="M180 368l-4 10q75 40 161 126q21 -47 54 -96q-18 -13 -44 -39q-7 13 -15 27t-15 31q-23 -17 -57 -31t-80 -28zM297 49q0 -21 22 -21q5 0 22 11l19 11q12 0 12 -10q-8 -7 -18 -15t-26 -16l-28 -14t-23 -8q-19 -1 -29 17t-11 38q0 29 11 62q17 44 18 53q-16 -22 -36 -47 t-46 -54q-57 -65 -108 -65q-47 0 -49 53q-1 73 70 207l-49 -13q-9 -2 -11 15q20 5 43 11t48 17l49 19q8 0 8 -6q0 -5 -21 -39q-26 -45 -36 -71q-41 -112 -41 -119q0 -36 22 -36q24 0 65 44q92 101 136 192q67 33 73 33q2 0 2 -3t-25 -65q-63 -161 -63 -181z"/>
<glyph glyph-name="udieresis" horiz-adv-x="393" unicode="ü" d="M262 454q1 -7 -7 -19q-23 -30 -33 -48l-56 -11q-9 -4 -14 -4q-4 0 -4 3l5 7q5 8 16 22t17 26t9 20q10 -3 23 -3q15 0 28 4l14 4q2 0 2 -1zM392 452q0 -7 -7 -17q-23 -30 -33 -48l-56 -11q-9 -4 -14 -4q-4 0 -4 3l5 7q5 8 16 22t17 26t9 20q10 -3 23 -3q15 0 28 4l14 4 q2 0 2 -3zM297 49q0 -21 22 -21q5 0 22 11l19 11q12 0 12 -10q-8 -7 -18 -15t-26 -16l-28 -14t-23 -8q-19 -1 -29 17t-11 38q0 29 11 62q17 44 18 53q-16 -22 -36 -47t-46 -54q-57 -65 -108 -65q-47 0 -49 53q-1 73 70 207l-49 -13q-9 -2 -11 15q20 5 43 11t48 17l49 19 q8 0 8 -6q0 -5 -21 -39q-26 -45 -36 -71q-41 -112 -41 -119q0 -36 22 -36q24 0 65 44q92 101 136 192q67 33 73 33q2 0 2 -3t-25 -65q-63 -161 -63 -181z"/>
<glyph glyph-name="yacute" horiz-adv-x="372" unicode="ý" d="M225 371l88 113q18 22 40 22q34 0 34 -33q0 -20 -19 -33l-103 -69h-40zM349 286q-5 -20 -15 -66q-37 -213 -124 -324q-70 -91 -149 -91q-22 0 -36 10q-18 12 -18 32q-1 17 15 31t32 14q10 0 18 -9q-2 -10 -2 -15q0 -30 33 -30q58 0 110 139q38 100 49 188 q-20 -29 -44 -57t-53 -55q-68 -62 -112 -62q-39 0 -39 56q0 22 32 106t32 91q-14 -3 -33 -9q-9 0 -9 15q36 10 129 48q6 0 6 -8q0 -7 -56 -114q-38 -72 -38 -118q0 -26 21 -26q29 0 101 78q40 43 57 74q19 31 32 86q8 4 20 12t28 16q13 0 13 -12z"/>
<glyph glyph-name="OE" horiz-adv-x="1146" unicode="Œ" d="M1158 588q0 -24 -20 -41t-45 -17q-21 0 -34 15q21 22 21 40q0 23 -39 37q-27 10 -58 10q-60 0 -121 -40q-69 -44 -69 -100q0 -45 64 -67q32 -11 133 -28q10 -1 10 -12q0 -9 -47 -41q-83 -13 -168 -65q-124 -76 -124 -188q0 -51 59 -85q52 -29 107 -29q63 0 126 31 q77 39 77 96q0 22 -30 33q3 40 53 42q22 -1 37 -17t15 -39q0 -71 -109 -122q-92 -42 -172 -42q-102 0 -157 21q-83 30 -87 114q-121 -116 -262 -116q-119 0 -196 74q-75 73 -77 192q-1 175 148 308q143 126 322 128h4q82 0 140 -41q-11 -11 -77 -30q-74 40 -121 40 q-137 0 -231 -93q-108 -107 -108 -296q0 -89 49 -162q61 -91 168 -91h2q125 2 224 117q22 27 36 49l3 4q58 93 58 200q0 47 -20 79q-21 34 -54 34q-5 0 -11 -1q0 23 18 41t41 19q47 0 76 -60q22 -45 22 -101q0 -49 -35 -124l4 3q86 55 181 79q-76 23 -100 36q-54 31 -54 83 q0 87 113 146q95 47 191 48q42 0 78 -14q46 -19 46 -57z"/>
<glyph glyph-name="oe" horiz-adv-x="559" unicode="œ" d="M429 273q-36 0 -67 -51q-29 -47 -29 -84q36 0 81 36q45 37 45 73q0 26 -30 26zM531 250q0 -49 -80 -93q-29 -15 -60 -27t-65 -20q0 -16 7 -30t18 -24t26 -18q15 -6 30 -6q29 0 64 20t38 20q10 0 10 -8q0 -7 -16 -20q-67 -53 -141 -53q-66 0 -91 54q-59 -54 -130 -54 q-52 0 -86 40q-35 41 -35 92q0 76 79 128q71 47 151 47q13 0 38 -5q28 -7 28 -16q0 -10 -51 -29q-22 25 -66 25q-51 0 -82 -52q-28 -44 -28 -98q0 -43 26 -73t68 -30q51 0 80 54q-1 4 -1 12q0 36 14 72q-4 19 -22 50q41 25 59 25q6 0 11 -5q69 70 141 70q66 0 66 -48z"/>
<glyph glyph-name="Scaron" horiz-adv-x="583" unicode="Š" d="M627 886l4 -10q-75 -40 -161 -126q-21 46 -54 96q8 6 19 16t25 23q8 -13 16 -27t14 -31q23 17 57 31t80 28zM613 627q1 -11 -3 -22t-10 -20t-16 -15q-8 -6 -18 -6q-6 0 -11 14q-3 14 -5 16q-35 35 -127 35h-5q-110 -2 -191 -56q-96 -63 -96 -165q0 -28 30 -47t55 -19h3 l159 7h22q168 0 168 -103q0 -59 -57 -125q-46 -53 -108 -91q-14 -8 -44 -16t-75 -12q-38 -4 -68 -6t-55 -2q-57 0 -102 14q-62 21 -62 68q0 21 20 47q19 25 41 25q12 0 13 -16v-25q2 -34 81 -50q53 -12 99 -12h7q90 2 162 34q94 43 94 121q0 18 -8 33t-21 25t-31 15t-36 5 l-224 -4h-3q-49 0 -80 30q-32 30 -32 79q0 77 86 166q77 78 156 112q29 11 80 20q25 4 45 6t37 2q130 0 130 -62z"/>
<glyph glyph-name="scaron" horiz-adv-x="298" unicode="š" d="M388 506l4 -10q-75 -40 -161 -126q-21 46 -54 96q19 13 44 39q7 -13 15 -27t15 -31q23 17 57 31t80 28zM275 154q0 -67 -49 -115q-48 -48 -115 -48q-37 0 -65 15q-35 20 -35 53v7q0 57 33 92q14 6 30 14l32 16q6 -2 6 -7q0 -10 -15 -32q-29 -43 -29 -87q0 -53 56 -53h2 q38 0 65 34q24 31 24 71q0 42 -43 132q-12 -6 -26 -14t-33 -17q-4 0 -8 13q13 6 31 16t44 24q9 22 33 51q28 36 45 36q15 0 15 -15q-5 -33 -39 -61q41 -99 41 -125z"/>
<glyph glyph-name="Ydieresis" horiz-adv-x="744" unicode="Ÿ" d="M631 829q1 -7 -7 -19q-23 -30 -33 -48l-56 -11q-9 -1 -14 -1h-4l5 8q5 8 16 21q12 14 18 26t8 20q10 -3 23 -3q15 0 28 4l14 4q2 0 2 -1zM761 829q1 -7 -7 -19q-23 -30 -33 -48l-56 -11q-9 -4 -14 -4q-4 0 -4 3l5 8q5 8 16 21q12 14 18 26t8 20q10 -3 23 -3q15 0 28 4 l14 4q2 0 2 -1zM179 -183q-63 0 -91 9q-54 16 -54 62q0 21 23 38q22 16 45 16q17 0 17 -12q-1 -3 -5 -13t-4 -16q0 -29 41 -49q36 -17 66 -17q85 0 182 79q45 36 77 74t54 80q39 76 66 136t43 104q22 63 33 123q10 55 10 108v10q-38 -70 -58 -106t-23 -40q-23 -42 -47 -76 t-47 -61q-214 -256 -391 -256q-45 0 -72 24t-27 69q0 140 106 300q85 128 162 179q-149 32 -150 50l63 42q100 -44 153 -44q55 46 108 46q24 0 24 -10q0 -18 -73 -64q-29 -14 -80 -18q-111 -90 -181 -236q-61 -125 -61 -212q0 -48 16 -68q18 -24 63 -24q68 0 172 80 q84 65 141 136q163 202 216 379q36 19 75 36q-4 -41 -8 -75t-8 -60q-22 -149 -57 -253q-14 -43 -40 -91t-61 -102q-53 -78 -86 -111q-82 -82 -149 -119q-86 -47 -183 -47z"/>
<glyph glyph-name="circumflex" horiz-adv-x="198" unicode="ˆ" d="M171 475l40 11q4 -56 41 -117l-47 -15q-13 24 -21 46t-13 42q-37 -45 -91 -88l-22 13q79 53 113 108z"/>
<glyph glyph-name="tilde" horiz-adv-x="250" unicode="˜" d="M258 521l7 -7q-39 -53 -81 -72q-19 -8 -44 -8q-30 0 -54 10q-38 16 -47 16t-30 -22l-7 5q55 87 72 87q4 0 45 -21q43 -20 67 -20q26 0 72 32z"/>
<glyph glyph-name="endash" horiz-adv-x="300" unicode="–" d="M273 186q-10 -27 -17 -35q-12 -18 -31 -19h-26q-28 0 -86 2h-19q-65 0 -103 -6l3 6q4 6 12 19q17 26 26 27t21 1q7 -1 13 -1q20 0 44 -2q28 -2 48 -3t30 -1q53 0 85 12z"/>
<glyph glyph-name="emdash" horiz-adv-x="600" unicode="—" d="M563 186q-24 -54 -50 -54l-253 2h-52q-173 0 -211 -6l3 6q4 6 12 19q17 26 26 27t27 1q9 -1 21 -1q36 0 94 -2q74 -2 126 -3t82 -1q143 0 175 12z"/>
<glyph glyph-name="quoteleft" horiz-adv-x="110" unicode="‘" d="M156 648q-20 -14 -33 -37q-23 -41 -23 -75q-31 -16 -53 -16q-9 0 -9 15q0 43 36 82t79 39q3 -2 3 -8z"/>
<glyph glyph-name="quotesinglbase" horiz-adv-x="110" unicode="‚" d="M168 37q0 -42 -37 -80q-36 -40 -78 -40q-3 1 -3 8q20 14 33 37q23 40 23 74q31 16 53 16q9 0 9 -15z"/>
<glyph glyph-name="quotedblleft" horiz-adv-x="240" unicode="“" d="M156 648q-20 -14 -33 -37q-23 -41 -23 -75q-31 -16 -53 -16q-9 0 -9 15q0 43 36 82t79 39q3 -2 3 -8zM286 648q-20 -14 -33 -37q-23 -41 -23 -75q-31 -16 -53 -16q-9 0 -9 15q0 43 36 82t79 39q3 -2 3 -8z"/>
<glyph glyph-name="quotedblright" horiz-adv-x="240" unicode="”" d="M168 642q0 -42 -37 -82q-36 -39 -78 -39q-3 1 -3 8q20 14 33 37q23 41 23 75q31 16 53 16q9 0 9 -15zM298 642q0 -42 -37 -82q-36 -39 -78 -39q-3 1 -3 8q20 14 33 37q23 41 23 75q31 16 53 16q9 0 9 -15z"/>
<glyph glyph-name="dagger" horiz-adv-x="441" unicode="†" d="M203 306l52 155q1 7 68 31q9 0 4 -8l-69 -178l108 1q28 1 42 1h14v-2v-4l-20 -44l-1 -1q-27 2 -67 3t-93 2q-36 -94 -63 -168t-44 -128q-18 -57 -30 -92t-17 -48q-42 -17 -63 -24q-3 0 -3 3q0 8 7 21l158 436q-45 -1 -130 -3q-21 -3 -25 -3q-3 0 -3 4q0 2 6 20q7 17 9 22 q4 7 10 7h8q7 0 18 -1t16 -1h7q22 -1 47 -1h54z"/>
<glyph glyph-name="daggerdbl" horiz-adv-x="441" unicode="‡" d="M216 338l42 124q54 27 66 27q2 -2 2 -3q0 -2 -4 -11l-53 -138q72 0 119 3q16 2 24 2h8q15 0 15 -4l-5 -12q-5 -12 -15 -34q-2 -3 -5 -3h-11q-5 1 -8 1h-3q-66 3 -135 3l-105 -297q8 0 160 6q3 0 3 -3q0 -11 -13 -38q-5 -9 -26 -9h-14q-11 0 -31 1h-44h-19q-12 0 -32 -1 l-42 -125l-54 -23q-8 -3 -9 -3q-4 0 -4 5q0 4 2 10l54 136h-42t-51 -1h-9t-20 -1q-13 -2 -21 -2h-9q-9 0 -7 5l20 45q0 2 3 2h25t51 -1t51 -1t24 -1l106 295q-64 -2 -104 -3t-54 -1q-3 0 -3 3q17 46 20 48q-1 -1 157 -1z"/>
<glyph glyph-name="ellipsis" horiz-adv-x="600" unicode="…" d="M333 70q8 0 8 -20q0 -65 -76 -65q-3 6 -3 9q12 16 15 60q15 0 29 8t27 8zM533 70q8 0 8 -20q0 -65 -76 -65q-3 6 -3 9q12 16 15 60q15 0 29 8t27 8zM133 70q8 0 8 -20q0 -65 -76 -65q-3 6 -3 9q12 16 15 60q15 0 29 8t27 8z"/>
<glyph glyph-name="perthousand" horiz-adv-x="860" unicode="‰" d="M164 506q50 -5 78 -41q23 -31 23 -65q0 -55 -49 -107q-48 -52 -106 -52q-20 1 -36 9t-28 23t-18 34t-7 40q0 57 48 105q28 28 36 28q4 0 4 -7q0 -2 -10 -11q-37 -31 -37 -85q0 -37 20 -68q22 -36 62 -36q31 0 54 22q29 26 29 69q0 45 -28 74q-27 27 -60 31q-16 1 -16 7 l12 8q15 8 29 22zM418 261q50 -5 78 -41q23 -32 23 -66q0 -54 -49 -106q-48 -52 -106 -52q-20 0 -36 8t-28 24q-12 14 -18 33t-7 40q0 66 61 118q17 16 23 16q4 0 4 -7q0 -2 -10 -11q-37 -31 -37 -86q0 -37 20 -68q22 -36 62 -36q31 0 54 22q29 26 29 69q0 44 -28 75 q-27 27 -60 31q-16 1 -16 7q3 3 12 8q14 7 29 22zM81 9l360 509q5 2 10 3t10 3q4 2 7 2t7 1q1 0 1 -2q0 -1 -4 -6t-5 -6l-370 -521l-34 -14q-3 1 -3 3q0 -1 21 28zM705 261q50 -5 78 -41q23 -32 23 -66q0 -54 -49 -106q-48 -52 -106 -52q-20 0 -36 8t-28 24q-13 14 -19 33 t-6 40q0 66 61 118q17 16 23 16q4 0 4 -7q0 -2 -10 -11q-37 -31 -37 -86q0 -37 20 -68q22 -36 62 -36q31 0 54 22q29 26 29 69q0 44 -28 75q-27 27 -60 31q-16 1 -16 7q3 3 12 8q14 7 29 22z"/>
<glyph glyph-name="guilsinglleft" horiz-adv-x="220" unicode="‹" d="M149 255l14 -17q-22 -14 -44 -30t-44 -33q17 -23 34 -47t36 -51l-47 -31q-14 23 -33 51t-44 62q28 20 60 44t68 52z"/>
<glyph glyph-name="guilsinglright" horiz-adv-x="220" unicode="›" d="M36 46l-13 16l44 32l44 32q-15 19 -33 43t-37 55l47 31q34 -58 77 -113q-9 -7 -25 -19t-40 -29q-23 -17 -39 -29t-25 -19z"/>
<glyph glyph-name="trademark" horiz-adv-x="1185" unicode="™" d="M446 624q0 -169 -116 -297q-30 -33 -92 -63t-105 -30q-114 0 -116 80q0 53 61 139q4 4 38 16q33 13 39 13q13 0 13 -9q-14 -19 -31 -41t-37 -49q-25 -43 -25 -68q0 -26 22 -41q19 -13 46 -13q114 1 182 123q52 97 60 225q5 1 11 5t16 11q20 14 24 14q10 0 10 -15z M523 703q0 -6 -23 -38q-41 3 -67 5t-37 2q-18 0 -45 -3t-62 -8q-28 -4 -87 -26q-52 -18 -52 -20h1q-11 0 -11 11q0 5 16 22q23 26 32 38q15 8 42 14t65 11q66 9 113 9q115 0 115 -17zM752 646q-5 -136 -84 -266q-90 -150 -208 -150q-37 0 -53 15t-16 52q0 33 24 74 q8 13 22 31t34 45l76 27q0 -18 -6 -21q-27 -20 -59 -63q-41 -56 -41 -90q0 -17 15 -30t32 -13q74 0 143 136q31 61 47 116t17 106zM1175 704q-23 -33 -47 -83t-50 -117q-56 -144 -56 -211q0 -27 21 -27q9 0 62 42l15 -12q-26 -20 -42 -33t-25 -18q-28 -17 -46 -17 q-15 0 -27 12t-13 26q0 67 43 196q18 54 36 100t38 86q-40 -38 -72 -74t-59 -70q-15 -18 -45 -64t-76 -119q-7 -11 -14 -27t-14 -36l-51 -31l22 163q5 42 8 81t3 76q0 133 -62 133q-20 0 -56 -15q-28 -11 -30 -11q0 16 54 69q8 2 19 3t25 2h2q44 0 74 -48q26 -41 26 -90 q0 -28 -2 -66t-8 -84q-5 -51 -8 -78t-3 -31q17 26 48 72t77 113q44 59 88 107t91 86l49 13q6 -8 6 -14q0 -2 -1 -4z"/>
</font>
</defs>
</svg>
